<?xml version="1.0" encoding="iso-8859-1"?>
<!-- Generator: Adobe Illustrator 19.0.0, SVG Export Plug-In . SVG Version: 6.00 Build 0)  -->
<svg xmlns="http://www.w3.org/2000/svg" xmlns:xlink="http://www.w3.org/1999/xlink" version="1.1" id="Layer_1" x="0px" y="0px" viewBox="0 0 512.001 512.001" style="enable-background:new 0 0 512.001 512.001;" xml:space="preserve">
<g>
	<g>
		<path d="M404.02,129.911c0-4.503-3.65-8.153-8.153-8.153H294.098l-1.615-5.385c-2.155-7.182-8.64-12.008-16.138-12.008h-10.923    c-4.503,0-8.153,3.65-8.153,8.153c0,4.503,3.65,8.153,8.153,8.153h10.923c0.241,0,0.451,0.155,0.521,0.387l20.512,68.371    c3.267,10.889,13.1,18.205,24.468,18.205h56.631c14.086,0,25.546-11.46,25.546-25.546v-52.177H404.02z M387.714,182.089    c0,5.095-4.145,9.24-9.24,9.24h-56.631c-4.112,0-7.669-2.646-8.851-6.585l-14.003-46.68h88.725V182.089z"/>
	</g>
</g>
<g>
	<g>
		<path d="M300.207,217.419c-9.291,0-16.849,7.558-16.849,16.849s7.558,16.849,16.849,16.849s16.849-7.558,16.849-16.849    S309.498,217.419,300.207,217.419z"/>
	</g>
</g>
<g>
	<g>
		<path d="M387.171,217.419c-9.291,0-16.849,7.558-16.849,16.849s7.558,16.849,16.849,16.849c9.291,0,16.849-7.558,16.849-16.849    S396.462,217.419,387.171,217.419z"/>
	</g>
</g>
<g>
	<g>
		<path d="M338.616,0.009c-95.605,0-173.384,77.779-173.384,173.384c0,44.876,17.138,85.823,45.211,116.644l-29.417,29.417    l-6.534-6.534c-6.569-6.568-17.258-6.568-23.828,0L10.029,453.554C3.561,460.022,0,468.62,0,477.767s3.561,17.745,10.029,24.213    c6.676,6.676,15.445,10.013,24.213,10.013c8.768,0,17.537-3.337,24.213-10.013L199.09,361.345c6.568-6.569,6.568-17.258,0-23.828    l-6.533-6.533l29.417-29.417c30.821,28.073,71.768,45.211,116.644,45.211c95.605,0,173.384-77.779,173.384-173.384    S434.221,0.009,338.616,0.009z M187.559,349.817L46.925,490.45c-6.994,6.993-18.372,6.992-25.366,0    c-3.387-3.388-5.254-7.892-5.254-12.683c0-4.791,1.865-9.295,5.254-12.683l140.634-140.634c0.107-0.107,0.246-0.159,0.385-0.159    s0.278,0.053,0.385,0.159l24.597,24.597C187.771,349.259,187.771,349.604,187.559,349.817z M338.616,330.472    c-86.614,0-157.079-70.465-157.079-157.079S252.002,16.314,338.616,16.314S495.694,86.78,495.694,173.393    S425.23,330.472,338.616,330.472z"/>
	</g>
</g>
<g>
	<g>
		<path d="M448.82,89.317c-2.736-3.577-7.852-4.258-11.429-1.523c-3.576,2.736-4.258,7.853-1.523,11.429    c37.026,48.413,32.393,117.475-10.778,160.645c-43.172,43.172-112.238,47.804-160.651,10.774    c-3.576-2.736-8.694-2.055-11.429,1.522c-2.736,3.576-2.055,8.694,1.522,11.429c24.813,18.979,54.407,28.305,83.913,28.305    c35.751,0,71.369-13.695,98.175-40.499C485.546,222.472,490.791,144.194,448.82,89.317z"/>
	</g>
</g>
<g>
	<g>
		<path d="M422.694,63.189c-54.878-41.97-133.156-36.726-182.081,12.2c-48.928,48.928-54.171,127.208-12.196,182.086    c1.606,2.098,4.03,3.2,6.481,3.2c1.727,0,3.469-0.547,4.947-1.677c3.576-2.735,4.258-7.853,1.522-11.429    c-37.029-48.413-32.397-117.477,10.775-160.65c43.17-43.171,112.233-47.804,160.645-10.778c3.577,2.736,8.693,2.053,11.429-1.523    C426.951,71.042,426.27,65.925,422.694,63.189z"/>
	</g>
</g>
<g>
</g>
<g>
</g>
<g>
</g>
<g>
</g>
<g>
</g>
<g>
</g>
<g>
</g>
<g>
</g>
<g>
</g>
<g>
</g>
<g>
</g>
<g>
</g>
<g>
</g>
<g>
</g>
<g>
</g>
</svg>
