<?xml version="1.0" encoding="iso-8859-1"?>
<!-- Generator: Adobe Illustrator 19.0.0, SVG Export Plug-In . SVG Version: 6.00 Build 0)  -->
<svg xmlns="http://www.w3.org/2000/svg" xmlns:xlink="http://www.w3.org/1999/xlink" version="1.1" id="Layer_1" x="0px" y="0px" viewBox="0 0 512 512" style="enable-background:new 0 0 512 512;" xml:space="preserve">
<g>
	<g>
		<path d="M485.083,50.398h-73.31c-4.744,0-8.591,3.846-8.591,8.591c0,4.744,3.846,8.591,8.591,8.591h73.31    c5.369,0,9.736,4.367,9.736,9.736v329.879c0,5.369-4.367,9.736-9.736,9.736H26.917c-5.369,0-9.736-4.367-9.736-9.736V77.315    c0-5.369,4.367-9.736,9.736-9.736h73.305c4.744,0,8.591-3.846,8.591-8.591c0-4.744-3.846-8.591-8.591-8.591H26.917    C12.075,50.398,0,62.473,0,77.315v329.879c0,14.842,12.075,26.917,26.917,26.917h173.535l-7.016,56.125h-29.069    c-4.744,0-8.591,3.846-8.591,8.591c0,4.744,3.846,8.591,8.591,8.591h183.266c4.744,0,8.591-3.846,8.591-8.591    c0-4.744-3.846-8.591-8.591-8.591h-29.069l-7.016-56.125h173.535c14.842,0,26.917-12.075,26.917-26.917V77.315    C512,62.473,499.925,50.398,485.083,50.398z M210.75,490.237l7.016-56.125h76.467l7.016,56.125H210.75z"/>
	</g>
</g>
<g>
	<g>
		<path d="M100.224,87.051h-54.98c-4.744,0-8.591,3.846-8.591,8.591v284.063c0,4.744,3.846,8.591,8.591,8.591h45.82    c4.744,0,8.591-3.846,8.591-8.591c0-4.744-3.846-8.591-8.591-8.591H53.834V104.233h46.389c4.744,0,8.591-3.846,8.591-8.591    C108.814,90.898,104.968,87.051,100.224,87.051z"/>
	</g>
</g>
<g>
	<g>
		<path d="M466.756,87.051h-54.98c-4.744,0-8.591,3.846-8.591,8.591c0,4.744,3.846,8.591,8.591,8.591h46.389v266.881H127.713    c-4.744,0-8.591,3.846-8.591,8.591c0,4.744,3.846,8.591,8.591,8.591h339.044c4.744,0,8.591-3.846,8.591-8.591V95.642    C475.347,90.898,471.5,87.051,466.756,87.051z"/>
	</g>
</g>
<g>
	<g>
		<path d="M393.45,251.991h-9.736V22.336c0-9.79-7.964-17.754-17.754-17.754H146.04c-9.79,0-17.754,7.964-17.754,17.754v229.655    h-9.736c-14.842,0-26.917,12.075-26.917,26.917v36.653c0,14.842,12.075,26.917,26.917,26.917H393.45    c14.842,0,26.917-12.075,26.917-26.917v-36.653C420.367,264.066,408.292,251.991,393.45,251.991z M145.468,260.648    c0-0.023,0.003-0.044,0.003-0.066c0-0.023-0.003-0.044-0.003-0.066V22.336c0-0.316,0.257-0.573,0.573-0.573H365.96    c0.316,0,0.573,0.257,0.573,0.573v266.309h-28.659c0.003-0.191,0.024-0.38,0.024-0.573c0-11.004-4.957-20.866-12.75-27.49    c7.792-6.624,12.75-16.486,12.75-27.49c0-19.895-16.186-36.081-36.081-36.081c-19.895,0-36.081,16.186-36.081,36.081    c0,11.004,4.957,20.866,12.75,27.49c-7.792,6.624-12.75,16.486-12.75,27.49c0,0.191,0.009,0.381,0.013,0.573h-74.464V58.989    c0-4.744-3.846-8.591-8.591-8.591c-4.744,0-8.591,3.846-8.591,8.591v229.655h-28.635V260.648z M301.817,251.991    c-10.421,0-18.899-8.478-18.899-18.899s8.478-18.899,18.899-18.899c10.421,0,18.899,8.478,18.899,18.899    C320.716,243.513,312.238,251.991,301.817,251.991z M320.716,288.072c0,0.192-0.018,0.381-0.024,0.573h-37.751    c-0.006-0.191-0.024-0.38-0.024-0.573c0-10.421,8.478-18.899,18.899-18.899C312.238,269.172,320.716,277.651,320.716,288.072z     M403.186,315.562c0,5.369-4.367,9.736-9.736,9.736H118.55c-5.369,0-9.736-4.367-9.736-9.736v-36.653    c0-5.369,4.367-9.736,9.736-9.736h9.736v28.063c0,4.744,3.846,8.591,8.591,8.591h238.246c4.744,0,8.591-3.846,8.591-8.591v-28.063    h9.736c5.369,0,9.736,4.367,9.736,9.736V315.562z"/>
	</g>
</g>
<g>
	<g>
		<path d="M219.347,50.398c-4.744,0-8.591,3.846-8.591,8.591v45.817c0,4.744,3.846,8.591,8.591,8.591    c4.744,0,8.591-3.846,8.591-8.591V58.989C227.937,54.245,224.091,50.398,219.347,50.398z"/>
	</g>
</g>
<g>
	<g>
		<path d="M219.347,132.868c-4.744,0-8.591,3.846-8.591,8.591v45.817c0,4.744,3.846,8.591,8.591,8.591    c4.744,0,8.591-3.846,8.591-8.591v-45.817C227.937,136.714,224.091,132.868,219.347,132.868z"/>
	</g>
</g>
<g>
	<g>
		<path d="M219.347,215.338c-4.744,0-8.591,3.846-8.591,8.591v36.653c0,4.744,3.846,8.591,8.591,8.591    c4.744,0,8.591-3.846,8.591-8.591v-36.653C227.937,219.184,224.091,215.338,219.347,215.338z"/>
	</g>
</g>
<g>
	<g>
		<path d="M320.143,50.398H283.49c-9.79,0-17.754,7.964-17.754,17.754v54.98c0,9.79,7.964,17.754,17.754,17.754h36.653    c9.79,0,17.754-7.964,17.754-17.754v-54.98C337.897,58.362,329.933,50.398,320.143,50.398z M320.716,123.132    c0,0.316-0.257,0.573-0.573,0.573H283.49c-0.316,0-0.573-0.257-0.573-0.573v-18.899h37.799V123.132z M320.716,87.051h-37.799    V68.152c0-0.316,0.257-0.573,0.573-0.573h36.653c0.316,0,0.573,0.257,0.573,0.573V87.051z"/>
	</g>
</g>
<g>
</g>
<g>
</g>
<g>
</g>
<g>
</g>
<g>
</g>
<g>
</g>
<g>
</g>
<g>
</g>
<g>
</g>
<g>
</g>
<g>
</g>
<g>
</g>
<g>
</g>
<g>
</g>
<g>
</g>
</svg>
