<?xml version="1.0" encoding="iso-8859-1"?>
<!-- Generator: Adobe Illustrator 19.0.0, SVG Export Plug-In . SVG Version: 6.00 Build 0)  -->
<svg xmlns="http://www.w3.org/2000/svg" xmlns:xlink="http://www.w3.org/1999/xlink" version="1.1" id="Layer_1" x="0px" y="0px" viewBox="0 0 512 512" style="enable-background:new 0 0 512 512;" xml:space="preserve">
<g>
	<g>
		<path d="M446.07,0H65.93C29.576,0,0,29.576,0,65.93V446.07C0,482.424,29.576,512,65.93,512H446.07    c36.354,0,65.93-29.576,65.93-65.93V65.93C512,29.576,482.424,0,446.07,0z M494.181,446.07c0,26.529-21.582,48.111-48.111,48.111    H65.93c-26.529,0-48.111-21.582-48.111-48.111V65.93c0-26.529,21.582-48.111,48.111-48.111H446.07    c26.529,0,48.111,21.582,48.111,48.111V446.07z"/>
	</g>
</g>
<g>
	<g>
		<path d="M465.077,247.09h-19.01c-4.92,0-8.909,3.989-8.909,8.909c0,4.92,3.989,8.91,8.909,8.91h19.01c4.92,0,8.91-3.989,8.91-8.91    C473.986,251.08,469.997,247.09,465.077,247.09z"/>
	</g>
</g>
<g>
	<g>
		<path d="M408.055,247.09H264.91V103.945c0-4.92-3.989-8.909-8.91-8.909c-4.92,0-8.909,3.989-8.909,8.909V247.09H46.923    c-4.92,0-8.91,3.989-8.91,8.909c0,4.92,3.989,8.91,8.91,8.91H247.09v200.167c0,4.92,3.989,8.91,8.909,8.91    c4.92,0,8.91-3.989,8.91-8.91V264.91h143.145c4.92,0,8.909-3.989,8.909-8.91C416.964,251.08,412.975,247.09,408.055,247.09z"/>
	</g>
</g>
<g>
	<g>
		<path d="M256,38.014c-4.92,0-8.909,3.989-8.909,8.91v19.01c0,4.922,3.989,8.91,8.909,8.91c4.92,0,8.91-3.989,8.91-8.91v-19.01    C264.91,42.003,260.92,38.014,256,38.014z"/>
	</g>
</g>
<g>
	<g>
		<path d="M189.476,123.545h-48.111V75.434c0-4.92-3.989-8.91-8.909-8.91s-8.91,3.989-8.91,8.91v48.111H75.434    c-4.92,0-8.91,3.989-8.91,8.91s3.989,8.909,8.91,8.909h48.111v48.111c0,4.92,3.989,8.909,8.91,8.909s8.909-3.989,8.909-8.909    v-48.111h48.111c4.92,0,8.909-3.989,8.909-8.909S194.396,123.545,189.476,123.545z"/>
	</g>
</g>
<g>
	<g>
		<path d="M436.566,123.545H322.524c-4.92,0-8.909,3.989-8.909,8.91s3.989,8.909,8.909,8.909h114.042c4.92,0,8.91-3.989,8.91-8.909    S441.487,123.545,436.566,123.545z"/>
	</g>
</g>
<g>
	<g>
		<path d="M436.566,342.125H322.524c-4.92,0-8.909,3.989-8.909,8.909c0,4.92,3.989,8.91,8.909,8.91h114.042    c4.92,0,8.91-3.989,8.91-8.91C445.476,346.114,441.487,342.125,436.566,342.125z"/>
	</g>
</g>
<g>
	<g>
		<path d="M436.566,399.146H322.524c-4.92,0-8.909,3.989-8.909,8.909c0,4.92,3.989,8.91,8.909,8.91h114.042    c4.92,0,8.91-3.989,8.91-8.91C445.476,403.135,441.487,399.146,436.566,399.146z"/>
	</g>
</g>
<g>
	<g>
		<path d="M145.054,379.545l41.218-41.218c3.479-3.478,3.479-9.121,0-12.599c-3.479-3.479-9.121-3.479-12.599,0l-41.218,41.218    l-41.218-41.218c-3.479-3.479-9.121-3.479-12.599,0c-3.479,3.479-3.479,9.121,0,12.599l41.218,41.218l-41.218,41.218    c-3.479,3.479-3.479,9.121,0,12.599c1.739,1.74,4.02,2.61,6.3,2.61s4.56-0.87,6.3-2.61l41.218-41.218l41.218,41.218    c1.739,1.739,4.02,2.61,6.3,2.61c2.28,0,4.56-0.87,6.3-2.61c3.479-3.479,3.479-9.121,0-12.599L145.054,379.545z"/>
	</g>
</g>
<g>
</g>
<g>
</g>
<g>
</g>
<g>
</g>
<g>
</g>
<g>
</g>
<g>
</g>
<g>
</g>
<g>
</g>
<g>
</g>
<g>
</g>
<g>
</g>
<g>
</g>
<g>
</g>
<g>
</g>
</svg>
