<?xml version="1.0" encoding="iso-8859-1"?>
<!-- Generator: Adobe Illustrator 19.0.0, SVG Export Plug-In . SVG Version: 6.00 Build 0)  -->
<svg xmlns="http://www.w3.org/2000/svg" xmlns:xlink="http://www.w3.org/1999/xlink" version="1.1" id="Layer_1" x="0px" y="0px" viewBox="0 0 512 512" style="enable-background:new 0 0 512 512;" xml:space="preserve">
<g>
	<g>
		<path d="M418.472,68.409H25.119C11.268,68.409,0,79.677,0,93.528v256.534c0,13.851,11.268,25.119,25.119,25.119h247.983    c4.427,0,8.017-3.589,8.017-8.017c0-4.427-3.589-8.017-8.017-8.017H25.119c-5.01,0-9.086-4.076-9.086-9.086V93.528    c0-5.01,4.076-9.086,9.086-9.086h393.353c5.01,0,9.086,4.076,9.086,9.086v111.167c0,4.427,3.589,8.017,8.017,8.017    c4.427,0,8.017-3.589,8.017-8.017V93.528C443.591,79.677,432.323,68.409,418.472,68.409z"/>
	</g>
</g>
<g>
	<g>
		<path d="M401.37,222.329c-22.525,0-44.124,6.74-62.382,19.243l2.014-6.31c1.346-4.218-0.982-8.729-5.2-10.074    c-4.216-1.348-8.729,0.982-10.074,5.2l-10.51,32.937c-0.822,2.574-0.291,5.388,1.411,7.487c1.531,1.888,3.823,2.966,6.225,2.966    c0.268,0,0.539-0.014,0.809-0.041l34.397-3.488c4.405-0.447,7.614-4.38,7.168-8.784c-0.447-4.405-4.38-7.606-8.784-7.168    l-8.94,0.906c15.724-10.926,34.384-16.841,53.867-16.841c52.161,0,94.597,42.436,94.597,94.597    c0,51.636-41.587,93.734-93.027,94.577c0.001-0.006,0.002-0.013,0.004-0.019c-1.782,0.033-3.563,0.035-5.333-0.033    c-4.408-0.177-8.15,3.274-8.323,7.698c-0.173,4.424,3.274,8.15,7.698,8.323c1.452,0.057,2.927,0.086,4.384,0.086    c61.002,0,110.63-49.629,110.63-110.63S462.371,222.329,401.37,222.329z"/>
	</g>
</g>
<g>
	<g>
		<path d="M136.284,128.267H67.875c-9.136,0-16.568,7.432-16.568,16.568v51.307c0,9.136,7.432,16.568,16.568,16.568h68.409    c9.136,0,16.568-7.432,16.568-16.568v-51.307C152.852,135.699,145.42,128.267,136.284,128.267z M85.511,196.676H67.875    c-0.295,0-0.534-0.239-0.534-0.534v-51.307c0-0.295,0.239-0.534,0.534-0.534h17.637V196.676z M136.818,196.141    c0,0.295-0.239,0.534-0.534,0.534h-34.739v-18.171h9.086c4.427,0,8.017-3.589,8.017-8.017s-3.589-8.017-8.017-8.017h-9.086V144.3    h34.739c0.295,0,0.534,0.239,0.534,0.534V196.141z"/>
	</g>
</g>
<g>
	<g>
		<path d="M345.787,119.716c-9.467,0-18.278,2.851-25.632,7.729c-7.571-5.017-16.488-7.729-25.675-7.729    c-25.638,0-46.497,20.858-46.497,46.497s20.858,46.497,46.497,46.497c9.47,0,18.284-2.853,25.641-7.735    c7.572,5.013,16.499,7.735,25.666,7.735c25.638,0,46.497-20.858,46.497-46.497S371.426,119.716,345.787,119.716z M308.114,193.442    c-4.106,2.064-8.734,3.233-13.634,3.233c-16.798,0-30.463-13.666-30.463-30.463s13.666-30.464,30.463-30.464    c4.781,0,9.448,1.127,13.652,3.234c-5.555,7.66-8.842,17.065-8.842,27.229C299.29,176.098,302.435,185.59,308.114,193.442z     M345.787,196.676c-4.773,0-9.444-1.129-13.651-3.237c5.554-7.66,8.841-17.064,8.841-27.227c0-4.427-3.589-8.017-8.017-8.017    s-8.017,3.589-8.017,8.017c0,6.037-1.772,11.666-4.814,16.404c-3.102-4.849-4.806-10.52-4.806-16.404    c0-16.798,13.666-30.464,30.463-30.464s30.464,13.666,30.464,30.464S362.585,196.676,345.787,196.676z"/>
	</g>
</g>
<g>
	<g>
		<path d="M127.733,256.534H59.324c-4.427,0-8.017,3.589-8.017,8.017s3.589,8.017,8.017,8.017h68.409    c4.427,0,8.017-3.589,8.017-8.017S132.16,256.534,127.733,256.534z"/>
	</g>
</g>
<g>
	<g>
		<path d="M264.551,307.841H59.324c-4.427,0-8.017,3.589-8.017,8.017s3.589,8.017,8.017,8.017h205.228    c4.427,0,8.017-3.589,8.017-8.017S268.979,307.841,264.551,307.841z"/>
	</g>
</g>
<g>
	<g>
		<path d="M230.347,256.534h-68.409c-4.427,0-8.017,3.589-8.017,8.017s3.589,8.017,8.017,8.017h68.409    c4.427,0,8.017-3.589,8.017-8.017S234.774,256.534,230.347,256.534z"/>
	</g>
</g>
<g>
	<g>
		<path d="M281.653,256.534h-17.102c-4.427,0-8.017,3.589-8.017,8.017s3.589,8.017,8.017,8.017h17.102    c4.427,0,8.017-3.589,8.017-8.017S286.081,256.534,281.653,256.534z"/>
	</g>
</g>
<g>
	<g>
		<path d="M310.034,285.459c-4.075-1.733-8.782,0.167-10.515,4.24c-2.321,5.458-4.213,11.148-5.621,16.91    c-1.051,4.3,1.583,8.64,5.884,9.691c0.639,0.156,1.279,0.231,1.91,0.231c3.609,0,6.886-2.453,7.782-6.115    c1.203-4.921,2.818-9.78,4.8-14.442C316.007,291.899,314.108,287.192,310.034,285.459z"/>
	</g>
</g>
<g>
	<g>
		<path d="M309.522,355.698c-1.21-4.907-2.03-9.96-2.438-15.019c-0.356-4.412-4.215-7.7-8.635-7.346    c-4.413,0.356-7.702,4.221-7.346,8.635c0.477,5.916,1.437,11.827,2.853,17.57c0.901,3.655,4.175,6.099,7.777,6.099    c0.635,0,1.282-0.076,1.926-0.235C307.956,364.341,310.581,359.998,309.522,355.698z"/>
	</g>
</g>
<g>
	<g>
		<path d="M367.876,421.459c-4.732-1.792-9.359-3.987-13.751-6.525c-3.834-2.214-8.737-0.902-10.952,2.932    c-2.215,3.834-0.901,8.737,2.932,10.952c5.14,2.968,10.555,5.538,16.094,7.635c0.935,0.354,1.893,0.522,2.837,0.522    c3.237,0,6.285-1.974,7.499-5.18C374.102,427.654,372.017,423.027,367.876,421.459z"/>
	</g>
</g>
<g>
	<g>
		<path d="M330.607,395.741c-3.366-3.791-6.449-7.881-9.164-12.156c-2.373-3.739-7.326-4.844-11.065-2.471    c-3.738,2.373-4.844,7.327-2.471,11.065c3.172,4.997,6.776,9.777,10.71,14.208c1.584,1.784,3.786,2.695,5.997,2.695    c1.893,0,3.792-0.667,5.32-2.022C333.246,404.119,333.546,399.052,330.607,395.741z"/>
	</g>
</g>
<g>
	<g>
		<path d="M409.386,326.8v-27.974c11.431,1.758,18.171,6.984,18.171,10.084c0,4.427,3.589,8.017,8.017,8.017    c4.427,0,8.017-3.589,8.017-8.017c0-13.489-14.236-24.034-34.205-26.274v-0.982c0-4.427-3.589-8.017-8.017-8.017    c-4.427,0-8.017,3.589-8.017,8.017v0.982c-19.969,2.24-34.205,12.786-34.205,26.274c0,18.805,18.787,25.929,34.205,30.21v27.974    c-11.431-1.758-18.171-6.984-18.171-10.084c0-4.427-3.589-8.017-8.017-8.017c-4.427,0-8.017,3.589-8.017,8.017    c0,13.489,14.235,24.034,34.205,26.274v0.982c0,4.427,3.589,8.017,8.017,8.017c4.427,0,8.017-3.589,8.017-8.017v-0.982    c19.969-2.24,34.205-12.786,34.205-26.274C443.591,338.205,424.804,331.081,409.386,326.8z M393.353,322.356    c-13.372-4.205-18.171-7.958-18.171-13.447c0-3.1,6.74-8.326,18.171-10.084V322.356z M409.386,367.094v-23.531    c13.372,4.205,18.171,7.958,18.171,13.447C427.557,360.11,420.817,365.336,409.386,367.094z"/>
	</g>
</g>
<g>
</g>
<g>
</g>
<g>
</g>
<g>
</g>
<g>
</g>
<g>
</g>
<g>
</g>
<g>
</g>
<g>
</g>
<g>
</g>
<g>
</g>
<g>
</g>
<g>
</g>
<g>
</g>
<g>
</g>
</svg>
