<?xml version="1.0" encoding="iso-8859-1"?>
<!-- Generator: Adobe Illustrator 19.0.0, SVG Export Plug-In . SVG Version: 6.00 Build 0)  -->
<svg xmlns="http://www.w3.org/2000/svg" xmlns:xlink="http://www.w3.org/1999/xlink" version="1.1" id="Layer_1" x="0px" y="0px" viewBox="0 0 512 512" style="enable-background:new 0 0 512 512;" xml:space="preserve">
<g>
	<g>
		<path d="M440.495,155.159c-4.344-0.857-8.563,1.966-9.422,6.312l-3.589,18.156c-13.12-29.544-33.595-55.082-60.004-74.61    c-32.449-23.997-70.993-36.681-111.466-36.681c-2.25,0-4.514,0.055-6.771,0.135c-1.462-2.159-2.984-4.291-4.585-6.383    c-2.691-3.518-7.723-4.188-11.242-1.498c-3.518,2.691-4.188,7.724-1.498,11.242c36.419,47.619,31.862,115.549-10.6,158.012    c-23.453,23.452-54.249,35.177-85.057,35.174c-30.8-0.002-61.61-11.727-85.057-35.174c-46.899-46.9-46.899-123.213,0-170.113    c42.462-42.462,110.393-47.019,158.012-10.6c3.518,2.691,8.552,2.02,11.242-1.498c2.69-3.518,2.02-8.551-1.498-11.242    C164.981-4.894,87.986,0.265,39.865,48.387c-53.153,53.153-53.153,139.64,0,192.795c26.577,26.577,61.487,39.865,96.397,39.865    c34.91,0,69.82-13.288,96.397-39.865c41.811-41.812,51.182-105.415,25.845-156.783c36.104,0.509,70.439,12.065,99.441,33.513    c25.076,18.545,44.291,43.012,56.214,71.342l-18.439-15.067c-3.429-2.804-8.481-2.295-11.284,1.135    c-2.802,3.429-2.295,8.481,1.135,11.284l38.621,31.56c1.454,1.188,3.253,1.809,5.076,1.809c0.912,0,1.829-0.156,2.713-0.473    c2.651-0.954,4.607-3.228,5.153-5.991l9.672-48.93C447.666,160.236,444.84,156.017,440.495,155.159z"/>
	</g>
</g>
<g>
	<g>
		<path d="M484.16,284.479c-2.69-3.518-7.723-4.187-11.242-1.497c-3.518,2.691-4.188,7.724-1.497,11.242    c36.423,47.619,31.867,115.551-10.597,158.016c-23.453,23.452-54.249,35.177-85.057,35.174    c-30.8-0.002-61.61-11.727-85.057-35.174c-46.899-46.9-46.899-123.213,0-170.113c42.465-42.463,110.397-47.019,158.016-10.597    c3.519,2.693,8.552,2.021,11.242-1.497c2.691-3.518,2.021-8.551-1.497-11.242c-53.979-41.288-130.975-36.13-179.1,11.996    c-42.342,42.342-50.954,105.837-25.836,156.784c-36.109-0.507-70.446-12.063-99.45-33.513    c-25.076-18.545-44.291-43.012-56.214-71.342l18.439,15.067c3.429,2.802,8.481,2.295,11.284-1.135    c2.802-3.429,2.295-8.481-1.135-11.284l-38.621-31.56c-2.181-1.782-5.138-2.289-7.788-1.336c-2.651,0.954-4.607,3.228-5.153,5.991    l-9.672,48.93c-0.86,4.344,1.966,8.563,6.312,9.422c0.525,0.104,1.048,0.154,1.564,0.154c3.751,0,7.103-2.646,7.858-6.466    l3.589-18.156c13.12,29.544,33.595,55.082,60.004,74.61c32.449,23.997,70.993,36.681,111.466,36.681    c2.254,0,4.523-0.055,6.784-0.135c4.789,7.084,10.306,13.816,16.572,20.083c26.577,26.577,61.487,39.865,96.397,39.865    s69.82-13.288,96.397-39.865C520.29,415.453,525.447,338.457,484.16,284.479z"/>
	</g>
</g>
<g>
	<g>
		<path d="M383.786,361.054v-45.307c18.196,1.941,31.007,10.238,31.007,17.754c0,4.429,3.59,8.019,8.019,8.019    s8.019-3.59,8.019-8.019c0-17.489-20.102-31.518-47.046-33.864v-9.439c0-4.429-3.59-8.019-8.019-8.019s-8.019,3.59-8.019,8.019    v9.439c-26.943,2.346-47.046,16.375-47.046,33.864c0,23.466,21.605,32.682,47.046,39.808v45.307    c-18.196-1.941-31.007-10.237-31.007-17.754c0-4.429-3.59-8.019-8.019-8.019s-8.019,3.59-8.019,8.019    c0,17.489,20.102,31.518,47.046,33.864v9.439c0,4.429,3.59,8.019,8.019,8.019s8.019-3.59,8.019-8.019v-9.439    c26.943-2.346,47.046-16.375,47.046-33.864C430.832,377.396,409.227,368.181,383.786,361.054z M367.748,356.591    c-22.944-6.922-31.007-13.18-31.007-23.09c0-7.518,12.811-15.814,31.007-17.754V356.591z M383.786,418.617v-40.844    c22.944,6.923,31.007,13.181,31.007,23.09C414.794,408.38,401.982,416.676,383.786,418.617z"/>
	</g>
</g>
<g>
	<g>
		<path d="M165.131,194.17c-7.943,7.11-18.196,11.027-28.869,11.027c-23.878,0-43.303-19.426-43.303-43.303v-9.088h43.303    c4.429,0,8.019-3.59,8.019-8.019s-3.59-8.019-8.019-8.019H92.958v-9.088c0-23.879,19.427-43.306,43.303-43.306    c10.675,0,20.929,3.918,28.873,11.03c3.299,2.954,8.369,2.674,11.323-0.624c2.954-3.3,2.674-8.369-0.624-11.323    c-10.889-9.75-24.943-15.12-39.572-15.12c-32.721,0-59.342,26.62-59.342,59.342v9.088h-9.088c-4.429,0-8.019,3.59-8.019,8.019    s3.59,8.019,8.019,8.019h9.088v9.088c0,32.721,26.62,59.342,59.342,59.342c14.626,0,28.677-5.367,39.565-15.115    c3.3-2.954,3.581-8.023,0.627-11.323C173.499,191.496,168.429,191.216,165.131,194.17z"/>
	</g>
</g>
<g>
</g>
<g>
</g>
<g>
</g>
<g>
</g>
<g>
</g>
<g>
</g>
<g>
</g>
<g>
</g>
<g>
</g>
<g>
</g>
<g>
</g>
<g>
</g>
<g>
</g>
<g>
</g>
<g>
</g>
</svg>
