<?xml version="1.0" encoding="iso-8859-1"?>
<!-- Generator: Adobe Illustrator 19.0.0, SVG Export Plug-In . SVG Version: 6.00 Build 0)  -->
<svg xmlns="http://www.w3.org/2000/svg" xmlns:xlink="http://www.w3.org/1999/xlink" version="1.1" id="Layer_1" x="0px" y="0px" viewBox="0 0 512 512" style="enable-background:new 0 0 512 512;" xml:space="preserve">
<g>
	<g>
		<path d="M475.919,73.306H265.814c-9.943,0-19.291-3.873-26.323-10.903l-28.141-28.141c-10.277-10.277-23.939-15.936-38.471-15.936    H36.081C16.186,18.327,0,34.512,0,54.407v403.186c0,19.895,16.186,36.081,36.081,36.081h439.839    c19.895,0,36.081-16.186,36.081-36.081V109.387C512,89.492,495.814,73.306,475.919,73.306z M494.819,133.648    c-5.5-3.396-11.974-5.362-18.899-5.362h-18.327c-4.744,0-8.591,3.846-8.591,8.591s3.846,8.591,8.591,8.591h18.327    c10.421,0,18.899,8.478,18.899,18.899v293.226c0,10.421-8.478,18.899-18.899,18.899H36.081c-10.421,0-18.899-8.478-18.899-18.899    V164.367c0-10.421,8.478-18.899,18.899-18.899H420.94c4.744,0,8.591-3.846,8.591-8.591s-3.846-8.591-8.591-8.591H36.081    c-6.925,0-13.399,1.966-18.899,5.362V54.407c0-10.421,8.478-18.899,18.899-18.899H172.88c9.943,0,19.291,3.873,26.323,10.903    l28.141,28.141c10.277,10.277,23.939,15.936,38.471,15.936h210.106c10.421,0,18.899,8.478,18.899,18.899V133.648z"/>
	</g>
</g>
<g>
	<g>
		<path d="M256,229.083c-19.895,0-36.081,16.186-36.081,36.081c0,19.895,16.186,36.081,36.081,36.081s36.081-16.186,36.081-36.081    C292.081,245.269,275.895,229.083,256,229.083z M256,284.063c-10.421,0-18.899-8.478-18.899-18.899    c0-10.421,8.478-18.899,18.899-18.899s18.899,8.478,18.899,18.899C274.899,275.584,266.421,284.063,256,284.063z"/>
	</g>
</g>
<g>
	<g>
		<path d="M283.036,309.805c-3.896-2.248-8.867-1.108-11.396,2.613c-3.532,5.197-9.379,8.299-15.641,8.299    s-12.108-3.102-15.641-8.299c-2.529-3.72-7.5-4.859-11.396-2.613c-16.883,9.735-27.371,27.741-27.371,46.992v18.327    c0,4.744,3.846,8.591,8.591,8.591h91.633c4.744,0,8.591-3.846,8.591-8.591v-18.327C310.407,337.545,299.92,319.54,283.036,309.805    z M293.226,366.532h-74.452v-9.736c0-11.025,4.8-21.142,13.114-28.146c6.552,5.891,15.106,9.247,24.112,9.247    s17.561-3.356,24.112-9.247c8.313,7.004,13.114,17.122,13.114,28.146V366.532z"/>
	</g>
</g>
<g>
	<g>
		<path d="M331.357,207.848c-24.337-17.825-54.39-26.436-84.637-24.245c-30.56,2.214-59.336,15.38-81.028,37.071    s-34.857,50.469-37.071,81.029c-2.19,30.242,6.421,60.301,24.247,84.638c1.683,2.298,4.292,3.514,6.937,3.514    c1.762,0,3.539-0.541,5.07-1.661c3.827-2.804,4.657-8.179,1.853-12.006c-15.417-21.053-22.865-47.064-20.969-73.246    c1.915-26.444,13.31-51.348,32.083-70.121c18.774-18.773,43.676-30.168,70.12-32.083c26.178-1.897,52.192,5.551,73.243,20.97    c3.828,2.804,9.203,1.974,12.006-1.854C336.014,216.027,335.185,210.651,331.357,207.848z"/>
	</g>
</g>
<g>
	<g>
		<path d="M359.133,235.623c-2.804-3.828-8.181-4.656-12.006-1.856c-3.828,2.804-4.657,8.179-1.854,12.006    c15.42,21.052,22.866,47.063,20.97,73.243c-1.915,26.444-13.31,51.347-32.083,70.12c-18.774,18.774-43.677,30.168-70.121,32.084    c-26.184,1.889-52.193-5.552-73.244-20.971c-3.827-2.802-9.203-1.974-12.006,1.853c-2.804,3.828-1.974,9.203,1.854,12.006    c21.849,16.007,48.309,24.584,75.377,24.584c3.079,0,6.169-0.111,9.257-0.334c30.561-2.213,59.337-15.378,81.029-37.071    c21.692-21.692,34.857-50.468,37.071-81.028C385.569,290.018,376.959,259.96,359.133,235.623z"/>
	</g>
</g>
<g>
</g>
<g>
</g>
<g>
</g>
<g>
</g>
<g>
</g>
<g>
</g>
<g>
</g>
<g>
</g>
<g>
</g>
<g>
</g>
<g>
</g>
<g>
</g>
<g>
</g>
<g>
</g>
<g>
</g>
</svg>
