<?xml version="1.0" encoding="iso-8859-1"?>
<!-- Generator: Adobe Illustrator 19.0.0, SVG Export Plug-In . SVG Version: 6.00 Build 0)  -->
<svg xmlns="http://www.w3.org/2000/svg" xmlns:xlink="http://www.w3.org/1999/xlink" version="1.1" id="Layer_1" x="0px" y="0px" viewBox="0 0 512 512" style="enable-background:new 0 0 512 512;" xml:space="preserve">
<g>
	<g>
		<path d="M448.43,54.98H26.917C12.075,54.98,0,67.055,0,81.897v274.899c0,14.842,12.075,26.917,26.917,26.917h293.226    c4.744,0,8.591-3.846,8.591-8.591s-3.846-8.591-8.591-8.591H26.917c-5.369,0-9.736-4.367-9.736-9.736V81.897    c0-5.369,4.367-9.736,9.736-9.736H448.43c5.369,0,9.736,4.367,9.736,9.736v119.125c0,4.744,3.846,8.591,8.591,8.591    c4.744,0,8.591-3.846,8.591-8.591V81.897C475.347,67.055,463.272,54.98,448.43,54.98z"/>
	</g>
</g>
<g>
	<g>
		<path d="M146.04,119.123H72.734c-9.79,0-17.754,7.964-17.754,17.754v54.98c0,9.79,7.964,17.754,17.754,17.754h73.307    c9.79,0,17.754-7.964,17.754-17.754v-54.98C163.794,127.087,155.83,119.123,146.04,119.123z M91.633,192.43H72.734    c-0.316,0-0.573-0.257-0.573-0.573v-54.98c0-0.316,0.257-0.573,0.573-0.573h18.899V192.43z M146.613,191.857    c0,0.316-0.257,0.573-0.573,0.573h-37.226v-19.472h9.736c4.744,0,8.591-3.846,8.591-8.591s-3.846-8.591-8.591-8.591h-9.736    v-19.472h37.226c0.316,0,0.573,0.257,0.573,0.573V191.857z"/>
	</g>
</g>
<g>
	<g>
		<path d="M370.541,109.96c-10.145,0-19.587,3.055-27.467,8.283c-8.113-5.377-17.668-8.283-27.513-8.283    c-27.474,0-49.826,22.352-49.826,49.826s22.352,49.826,49.826,49.826c10.148,0,19.593-3.057,27.476-8.288    c8.114,5.372,17.681,8.288,27.504,8.288c27.474,0,49.826-22.352,49.826-49.826S398.015,109.96,370.541,109.96z M330.171,188.965    c-4.4,2.212-9.359,3.465-14.61,3.465c-18,0-32.644-14.644-32.644-32.644s14.644-32.644,32.644-32.644    c5.123,0,10.124,1.207,14.629,3.466c-5.953,8.208-9.475,18.287-9.475,29.178C320.716,170.378,324.086,180.55,330.171,188.965z     M370.541,192.43c-5.114,0-10.12-1.21-14.628-3.468c5.952-8.208,9.474-18.285,9.474-29.176c0-4.744-3.846-8.591-8.591-8.591    c-4.744,0-8.591,3.846-8.591,8.591c0,6.469-1.899,12.501-5.159,17.579c-3.324-5.196-5.15-11.273-5.15-17.579    c0-18,14.644-32.644,32.644-32.644s32.644,14.644,32.644,32.644S388.542,192.43,370.541,192.43z"/>
	</g>
</g>
<g>
	<g>
		<path d="M136.877,256.573H63.57c-4.744,0-8.591,3.846-8.591,8.591c0,4.744,3.846,8.591,8.591,8.591h73.306    c4.744,0,8.591-3.846,8.591-8.591C145.468,260.419,141.621,256.573,136.877,256.573z"/>
	</g>
</g>
<g>
	<g>
		<path d="M329.307,311.553H63.57c-4.744,0-8.591,3.846-8.591,8.591c0,4.744,3.846,8.591,8.591,8.591h265.736    c4.744,0,8.591-3.846,8.591-8.591C337.897,315.399,334.051,311.553,329.307,311.553z"/>
	</g>
</g>
<g>
	<g>
		<path d="M246.837,256.573H173.53c-4.744,0-8.591,3.846-8.591,8.591c0,4.744,3.846,8.591,8.591,8.591h73.306    c4.744,0,8.591-3.846,8.591-8.591C255.427,260.419,251.581,256.573,246.837,256.573z"/>
	</g>
</g>
<g>
	<g>
		<path d="M338.47,256.573h-54.98c-4.744,0-8.591,3.846-8.591,8.591c0,4.744,3.846,8.591,8.591,8.591h54.98    c4.744,0,8.591-3.846,8.591-8.591C347.06,260.419,343.214,256.573,338.47,256.573z"/>
	</g>
</g>
<g>
	<g>
		<path d="M493.673,322.129V283.49c0-35.053-28.517-63.57-63.57-63.57s-63.57,28.517-63.57,63.57v38.639    c-10.641,3.594-18.327,13.665-18.327,25.504v82.47c0,14.842,12.075,26.917,26.917,26.917h109.96    c14.842,0,26.917-12.075,26.917-26.917v-82.47C512,335.794,504.314,325.724,493.673,322.129z M383.714,283.49    c0-25.579,20.81-46.389,46.389-46.389s46.389,20.81,46.389,46.389v37.226h-92.779V283.49z M494.819,430.103    c0,5.369-4.367,9.736-9.736,9.736h-109.96c-5.369,0-9.736-4.367-9.736-9.736v-82.47c0-5.369,4.367-9.736,9.736-9.736h109.96    c5.369,0,9.736,4.367,9.736,9.736V430.103z"/>
	</g>
</g>
<g>
	<g>
		<path d="M430.103,357.369c-12.315,0-22.336,10.02-22.336,22.336c0,9.273,5.681,17.24,13.745,20.613v11.459    c0,4.744,3.846,8.591,8.591,8.591s8.591-3.846,8.591-8.591v-11.459c8.064-3.373,13.745-11.34,13.745-20.613    C452.438,367.389,442.418,357.369,430.103,357.369z M430.103,384.859c-2.842,0-5.154-2.313-5.154-5.154    c0-2.842,2.313-5.154,5.154-5.154s5.154,2.313,5.154,5.154C435.257,382.546,432.945,384.859,430.103,384.859z"/>
	</g>
</g>
<g>
</g>
<g>
</g>
<g>
</g>
<g>
</g>
<g>
</g>
<g>
</g>
<g>
</g>
<g>
</g>
<g>
</g>
<g>
</g>
<g>
</g>
<g>
</g>
<g>
</g>
<g>
</g>
<g>
</g>
</svg>
