<?xml version="1.0" encoding="iso-8859-1"?>
<!-- Generator: Adobe Illustrator 19.0.0, SVG Export Plug-In . SVG Version: 6.00 Build 0)  -->
<svg xmlns="http://www.w3.org/2000/svg" xmlns:xlink="http://www.w3.org/1999/xlink" version="1.1" id="Layer_1" x="0px" y="0px" viewBox="0 0 512 512" style="enable-background:new 0 0 512 512;" xml:space="preserve">
<g>
	<g>
		<path d="M256,85.511c-4.427,0-8.017,3.589-8.017,8.017v86.046h-43.29c-4.427,0-8.017,3.589-8.017,8.017s3.589,8.017,8.017,8.017    h43.29v95.132h-103.58c0.263-11.384,1.073-22.705,2.439-33.758c0.543-4.394-2.579-8.396-6.972-8.939    c-4.397-0.545-8.396,2.579-8.939,6.972c-1.446,11.699-2.298,23.682-2.563,35.724H58.955    c1.448-36.139,12.675-70.914,32.697-101.028c2.451-3.687,1.449-8.662-2.237-11.114c-3.686-2.451-8.662-1.449-11.114,2.237    c-23.254,34.975-35.545,75.751-35.545,117.922C42.756,416.339,138.416,512,256,512s213.244-95.661,213.244-213.244    S373.584,85.511,256,85.511z M58.966,306.772h69.398c0.738,33.786,6.12,66.215,15.639,95.132H87.984    C70.795,374.01,60.363,341.536,58.966,306.772z M98.987,417.937h50.869c4.268,10.614,9.129,20.652,14.567,29.975    c8.984,15.401,19.137,28.219,30.148,38.246C156.182,473.544,122.961,449.445,98.987,417.937z M247.983,495.455    c-26.047-3.321-50.55-22.775-69.711-55.621c-4.021-6.893-7.708-14.214-11.052-21.896h80.763V495.455z M247.983,401.904h-87.056    c-10.05-28.52-15.753-61.046-16.527-95.132h103.583V401.904z M453.034,290.739h-69.398c-0.738-33.786-6.12-66.214-15.639-95.132    h56.02C441.205,223.501,451.637,255.975,453.034,290.739z M413.013,179.574h-50.869c-4.268-10.614-9.129-20.652-14.568-29.975    c-8.984-15.401-19.137-28.219-30.148-38.246C355.818,123.968,389.039,148.067,413.013,179.574z M264.017,102.057    c26.047,3.321,50.55,22.775,69.711,55.621c4.021,6.894,7.708,14.214,11.052,21.896h-80.763V102.057z M264.017,195.608h87.056    c10.05,28.52,15.752,61.044,16.527,95.132H264.017V195.608z M424.015,401.904h-14.098c-4.427,0-8.017,3.589-8.017,8.017    s3.589,8.017,8.017,8.017h3.093c-24.01,31.556-57.296,55.681-95.76,68.279c8.817-7.981,17.089-17.72,24.623-29.119    c2.441-3.694,1.426-8.667-2.268-11.108c-3.692-2.44-8.667-1.426-11.108,2.268c-18.27,27.644-40.911,44.119-64.481,47.18v-77.5    h43.292c4.427,0,8.017-3.589,8.017-8.017c0-4.427-3.589-8.017-8.017-8.017h-43.292v-95.132h103.585    c-0.394,17.178-2.051,34.109-4.951,50.438c-0.775,4.36,2.132,8.521,6.491,9.295c0.475,0.084,0.946,0.125,1.411,0.125    c3.813,0,7.194-2.731,7.883-6.616c3.062-17.248,4.808-35.122,5.206-53.242h69.391C451.636,341.536,441.204,374.01,424.015,401.904    z"/>
	</g>
</g>
<g>
	<g>
		<path d="M144.835,0C97.979,0,59.858,38.121,59.858,84.977c0,31.866,20.677,57.295,40.672,81.886    c14.617,17.977,29.732,36.566,36.699,57.468c1.091,3.274,4.155,5.481,7.605,5.481s6.514-2.208,7.605-5.481    c6.967-20.902,22.082-39.49,36.698-57.467c19.997-24.592,40.674-50.021,40.674-81.887C229.812,38.121,191.691,0,144.835,0z     M176.7,156.748c-11.512,14.158-23.315,28.673-31.865,44.885c-8.55-16.212-20.353-30.727-31.865-44.885    c-19.068-23.45-37.079-45.601-37.079-71.771c0-38.015,30.928-68.944,68.944-68.944s68.944,30.928,68.944,68.944    C213.779,111.147,195.768,133.297,176.7,156.748z"/>
	</g>
</g>
<g>
	<g>
		<path d="M152.852,83.416V59.868c6.032,1.717,9.62,5.147,9.62,7.74c0,4.427,3.589,8.017,8.017,8.017s8.017-3.589,8.017-8.017    c0-11.889-10.768-21.575-25.653-24.164v-1.222c0-4.427-3.589-8.017-8.017-8.017s-8.017,3.589-8.017,8.017v1.222    c-14.885,2.59-25.653,12.275-25.653,24.164c0,16.747,13.852,23.455,25.653,27.481v23.549c-6.032-1.717-9.62-5.147-9.62-7.74    c0-4.427-3.589-8.017-8.017-8.017s-8.017,3.589-8.017,8.017c0,11.889,10.768,21.575,25.653,24.164v1.222    c0,4.427,3.589,8.017,8.017,8.017s8.017-3.589,8.017-8.017v-1.222c14.885-2.59,25.653-12.275,25.653-24.164    C178.505,94.15,164.653,87.443,152.852,83.416z M136.818,77.865c-7.945-3.438-9.62-6.343-9.62-10.257    c0-2.593,3.588-6.023,9.62-7.74V77.865z M152.852,118.638v-17.997c7.945,3.438,9.62,6.343,9.62,10.257    C162.472,113.491,158.884,116.921,152.852,118.638z"/>
	</g>
</g>
<g>
	<g>
		<path d="M358.614,384.802c-13.851,0-25.119,11.268-25.119,25.119c0,13.851,11.268,25.119,25.119,25.119    c13.851,0,25.119-11.268,25.119-25.119C383.733,396.07,372.465,384.802,358.614,384.802z M358.614,419.006    c-5.01,0-9.086-4.076-9.086-9.086c0-5.01,4.076-9.086,9.086-9.086c5.01,0,9.086,4.076,9.086,9.086    C367.699,414.931,363.624,419.006,358.614,419.006z"/>
	</g>
</g>
<g>
</g>
<g>
</g>
<g>
</g>
<g>
</g>
<g>
</g>
<g>
</g>
<g>
</g>
<g>
</g>
<g>
</g>
<g>
</g>
<g>
</g>
<g>
</g>
<g>
</g>
<g>
</g>
<g>
</g>
</svg>
