<?xml version="1.0" encoding="iso-8859-1"?>
<!-- Generator: Adobe Illustrator 19.0.0, SVG Export Plug-In . SVG Version: 6.00 Build 0)  -->
<svg xmlns="http://www.w3.org/2000/svg" xmlns:xlink="http://www.w3.org/1999/xlink" version="1.1" id="Layer_1" x="0px" y="0px" viewBox="0 0 512 512" style="enable-background:new 0 0 512 512;" xml:space="preserve">
<g>
	<g>
		<path d="M256,274.899c-65.369,0-118.55,53.182-118.55,118.55S190.631,512,256,512s118.55-53.182,118.55-118.55    S321.369,274.899,256,274.899z M256,494.819c-55.895,0-101.369-45.474-101.369-101.369c0-55.895,45.474-101.369,101.369-101.369    c55.895,0,101.369,45.474,101.369,101.369C357.369,449.345,311.895,494.819,256,494.819z"/>
	</g>
</g>
<g>
	<g>
		<path d="M326.217,350.722c-3.354-3.355-8.794-3.355-12.148,0l-76.396,76.396l-39.742-39.742c-3.355-3.355-8.794-3.355-12.148,0    c-3.355,3.355-3.355,8.794,0,12.148l45.817,45.817c1.677,1.677,3.876,2.516,6.074,2.516c2.198,0,4.397-0.838,6.074-2.516    l82.47-82.47C329.572,359.516,329.572,354.076,326.217,350.722z"/>
	</g>
</g>
<g>
	<g>
		<path d="M466.756,0H45.244C30.402,0,18.327,12.075,18.327,26.917v384.859c0,14.842,12.075,26.917,26.917,26.917h64.143    c4.744,0,8.591-3.846,8.591-8.591s-3.846-8.591-8.591-8.591H45.244c-5.369,0-9.736-4.367-9.736-9.736V26.917    c0-5.369,4.367-9.736,9.736-9.736h147.186V146.04c0,2.977,1.542,5.742,4.074,7.308c2.531,1.566,5.694,1.708,8.358,0.376    l14.485-7.242l14.482,7.242c2.418,1.208,5.265,1.211,7.683,0l14.492-7.244l14.484,7.242c2.419,1.21,5.265,1.21,7.685,0    l14.483-7.242l14.484,7.242c1.213,0.606,2.529,0.907,3.842,0.907c1.571,0,3.137-0.431,4.516-1.283    c2.532-1.566,4.074-4.33,4.074-7.308V17.181h147.186c5.369,0,9.736,4.367,9.736,9.736v384.859c0,5.369-4.367,9.736-9.736,9.736    h-64.148c-4.744,0-8.591,3.846-8.591,8.591s3.846,8.591,8.591,8.591h64.148c14.842,0,26.917-12.075,26.917-26.917V26.917    C493.673,12.075,481.598,0,466.756,0z M302.389,132.14l-5.893-2.946c-2.419-1.21-5.265-1.21-7.685,0l-14.483,7.242l-14.484-7.242    c-2.419-1.208-5.265-1.211-7.683,0l-14.492,7.242l-14.483-7.242c-1.21-0.605-2.526-0.907-3.842-0.907    c-1.316,0-2.632,0.302-3.842,0.907l-5.893,2.947V17.181h92.779V132.14z"/>
	</g>
</g>
<g>
	<g>
		<path d="M152.114,121.64c-3.355-3.355-8.794-3.355-12.148,0l-12.825,12.825V81.897c0-4.744-3.846-8.591-8.591-8.591    c-4.744,0-8.591,3.846-8.591,8.591v52.568L97.134,121.64c-3.355-3.355-8.794-3.355-12.148,0c-3.355,3.355-3.355,8.794,0,12.148    l27.49,27.49c1.677,1.677,3.876,2.516,6.074,2.516s4.397-0.838,6.074-2.516l27.49-27.49    C155.469,130.434,155.469,124.993,152.114,121.64z"/>
	</g>
</g>
<g>
	<g>
		<path d="M146.04,36.653H91.06c-4.744,0-8.591,3.846-8.591,8.591c0,4.744,3.846,8.591,8.591,8.591h54.98    c4.744,0,8.591-3.846,8.591-8.591C154.631,40.5,150.785,36.653,146.04,36.653z"/>
	</g>
</g>
<g>
</g>
<g>
</g>
<g>
</g>
<g>
</g>
<g>
</g>
<g>
</g>
<g>
</g>
<g>
</g>
<g>
</g>
<g>
</g>
<g>
</g>
<g>
</g>
<g>
</g>
<g>
</g>
<g>
</g>
</svg>
