<?xml version="1.0" encoding="iso-8859-1"?>
<!-- Generator: Adobe Illustrator 19.0.0, SVG Export Plug-In . SVG Version: 6.00 Build 0)  -->
<svg xmlns="http://www.w3.org/2000/svg" xmlns:xlink="http://www.w3.org/1999/xlink" version="1.1" id="Layer_1" x="0px" y="0px" viewBox="0 0 512 512" style="enable-background:new 0 0 512 512;" xml:space="preserve">
<g>
	<g>
		<path d="M442.462,85.713L364.359,7.61C359.452,2.703,352.925,0,345.985,0H87.914C73.584,0,61.927,11.658,61.927,25.987v460.026    c0,14.329,11.658,25.987,25.987,25.987h336.173c14.329,0,25.987-11.658,25.987-25.987V104.089    C450.073,97.147,447.371,90.621,442.462,85.713z M433.485,486.014c0.001,5.182-4.215,9.398-9.398,9.398H87.914    c-5.183,0-9.4-4.217-9.4-9.4V25.987c0-5.183,4.217-9.4,9.4-9.4h248.259v71.326c0,14.329,11.658,25.987,25.987,25.987h44.233    c4.58,0,8.294-3.713,8.294-8.294c0-4.58-3.713-8.294-8.294-8.294H362.16c-5.183,0-9.4-4.217-9.4-9.4V19.469l77.972,77.973    c1.775,1.775,2.752,4.136,2.752,6.647V486.014z"/>
	</g>
</g>
<g>
	<g>
		<path d="M256,221.166c-63.11,0-114.454,51.344-114.454,114.454S192.89,450.073,256,450.073S370.454,398.73,370.454,335.62    S319.11,221.166,256,221.166z M158.134,335.619c0-26.063,10.243-49.779,26.914-67.336l56.397,63.446l-80.582,26.861    C159.084,351.219,158.134,343.528,158.134,335.619z M166.119,374.323l71.233-23.744l-38.615,64.357    C184.519,404.64,173.165,390.623,166.119,374.323z M256,433.486c-15.44,0-30.052-3.599-43.051-9.993l46.93-78.218L347.9,369.28    C334.148,406.712,298.142,433.486,256,433.486z M260.56,328.267l-63.122-71.012c16.341-12.243,36.618-19.501,58.562-19.501    c53.964,0,97.866,43.903,97.866,97.866c0,6.028-0.552,11.929-1.6,17.658L260.56,328.267z"/>
	</g>
</g>
<g>
	<g>
		<path d="M175.827,121.51V88.054c11.685,2,18.799,7.953,18.799,12.3c0,4.58,3.713,8.294,8.294,8.294    c4.58,0,8.294-3.713,8.294-8.294c0-14.661-14.993-26.507-35.387-29.062V70.22c0-4.58-3.713-8.294-8.294-8.294    c-4.58,0-8.294,3.713-8.294,8.294v1.072c-20.394,2.556-35.387,14.402-35.387,29.062c0,20.768,19.479,28.748,35.387,33.583v33.456    c-11.685-2-18.799-7.953-18.799-12.3c0-4.58-3.713-8.294-8.294-8.294c-4.58,0-8.294,3.713-8.294,8.294    c0,14.661,14.993,26.507,35.387,29.062v1.072c0,4.58,3.713,8.294,8.294,8.294c4.58,0,8.294-3.713,8.294-8.294v-1.072    c20.394-2.556,35.387-14.402,35.387-29.062C211.214,134.325,191.735,126.345,175.827,121.51z M159.24,116.443    c-13.991-4.876-18.799-9.272-18.799-16.089c0-2.623,2.313-5.519,6.346-7.945c3.408-2.05,7.731-3.533,12.453-4.343V116.443z     M188.28,163.038c-3.408,2.05-7.731,3.533-12.453,4.343v-28.377c13.991,4.876,18.799,9.272,18.799,16.089    C194.626,157.716,192.313,160.612,188.28,163.038z"/>
	</g>
</g>
<g>
	<g>
		<path d="M309.08,79.62h-70.773c-4.58,0-8.294,3.713-8.294,8.294c0,4.58,3.713,8.294,8.294,8.294h70.773    c4.58,0,8.294-3.713,8.294-8.294C317.374,83.333,313.66,79.62,309.08,79.62z"/>
	</g>
</g>
<g>
	<g>
		<path d="M264.847,115.006h-26.54c-4.58,0-8.294,3.713-8.294,8.294c0,4.58,3.713,8.294,8.294,8.294h26.54    c4.58,0,8.294-3.713,8.294-8.294C273.14,118.72,269.427,115.006,264.847,115.006z"/>
	</g>
</g>
<g>
	<g>
		<path d="M317.927,115.006h-17.693c-4.58,0-8.294,3.713-8.294,8.294c0,4.58,3.713,8.294,8.294,8.294h17.693    c4.58,0,8.294-3.713,8.294-8.294C326.22,118.72,322.507,115.006,317.927,115.006z"/>
	</g>
</g>
<g>
	<g>
		<path d="M353.313,150.393H238.307c-4.58,0-8.294,3.713-8.294,8.294c0,4.58,3.713,8.294,8.294,8.294h115.006    c4.58,0,8.294-3.713,8.294-8.294C361.607,154.106,357.893,150.393,353.313,150.393z"/>
	</g>
</g>
<g>
</g>
<g>
</g>
<g>
</g>
<g>
</g>
<g>
</g>
<g>
</g>
<g>
</g>
<g>
</g>
<g>
</g>
<g>
</g>
<g>
</g>
<g>
</g>
<g>
</g>
<g>
</g>
<g>
</g>
</svg>
