<?xml version="1.0" encoding="iso-8859-1"?>
<!-- Generator: Adobe Illustrator 19.0.0, SVG Export Plug-In . SVG Version: 6.00 Build 0)  -->
<svg xmlns="http://www.w3.org/2000/svg" xmlns:xlink="http://www.w3.org/1999/xlink" version="1.1" id="Layer_1" x="0px" y="0px" viewBox="0 0 512 512" style="enable-background:new 0 0 512 512;" xml:space="preserve">
<g>
	<g>
		<path d="M375.43,87.361c4.58,0,8.294-3.713,8.294-8.294V34.834C383.724,15.627,368.097,0,348.89,0H101.184    C81.976,0,66.35,15.627,66.35,34.834v442.333c0,19.207,15.626,34.834,34.834,34.834H348.89c19.207,0,34.834-15.627,34.834-34.834    V335.62c0-4.58-3.713-8.294-8.294-8.294c-4.58,0-8.294,3.713-8.294,8.294v141.546c0,10.061-8.185,18.246-18.246,18.246H101.184    c-10.061,0-18.246-8.185-18.246-18.246V34.834c0-10.061,8.185-18.246,18.246-18.246H348.89c10.061,0,18.246,8.185,18.246,18.246    v44.233C367.136,83.647,370.849,87.361,375.43,87.361z"/>
	</g>
</g>
<g>
	<g>
		<path d="M242.73,35.387h-35.387c-4.58,0-8.294,3.713-8.294,8.294c0,4.58,3.713,8.294,8.294,8.294h35.387    c4.58,0,8.294-3.713,8.294-8.294C251.024,39.1,247.31,35.387,242.73,35.387z"/>
	</g>
</g>
<g>
	<g>
		<path d="M172.045,35.387h-0.089c-4.58,0-8.25,3.713-8.25,8.294c0,4.58,3.758,8.294,8.338,8.294c4.58,0,8.294-3.713,8.294-8.294    C180.339,39.1,176.626,35.387,172.045,35.387z"/>
	</g>
</g>
<g>
	<g>
		<path d="M242.73,460.026h-35.387c-4.58,0-8.294,3.713-8.294,8.294c0,4.58,3.713,8.294,8.294,8.294h35.387    c4.58,0,8.294-3.713,8.294-8.294C251.024,463.739,247.31,460.026,242.73,460.026z"/>
	</g>
</g>
<g>
	<g>
		<path d="M340.043,336.172c-4.58,0-8.294,3.713-8.294,8.294v80.174H118.324V87.361h221.719c4.58,0,8.294-3.713,8.294-8.294    c0-4.58-3.713-8.294-8.294-8.294H110.03c-4.58,0-8.294,3.713-8.294,8.294v353.866c0,4.58,3.713,8.294,8.294,8.294h230.013    c4.58,0,8.294-3.713,8.294-8.294v-88.468C348.337,339.885,344.624,336.172,340.043,336.172z"/>
	</g>
</g>
<g>
	<g>
		<path d="M340.132,150.393h-0.088c-4.58,0-8.25,3.713-8.25,8.294c0,4.58,3.758,8.294,8.338,8.294c4.58,0,8.294-3.713,8.294-8.294    C348.425,154.106,344.712,150.393,340.132,150.393z"/>
	</g>
</g>
<g>
	<g>
		<path d="M340.043,106.16c-58.232,0-105.607,47.375-105.607,105.607c0,30.554,12.938,58.982,35.739,79.066    c-11.441,18.731-23.858,29.525-23.985,29.633c-2.733,2.334-3.651,6.163-2.276,9.483c1.292,3.116,4.328,5.119,7.659,5.119    c0.218,0,0.438-0.009,0.658-0.025c1.365-0.108,32.508-2.768,60.135-21.346c9.004,2.442,18.295,3.678,27.677,3.678    c58.232,0,105.607-47.375,105.607-105.607C445.65,153.535,398.275,106.16,340.043,106.16z M340.043,300.786    c-9.084,0-18.064-1.373-26.689-4.081c-2.51-0.787-5.247-0.337-7.374,1.214c-10.211,7.453-21.42,12.265-31.044,15.344    c4.305-5.678,8.903-12.505,13.214-20.384c1.962-3.586,1.018-8.067-2.223-10.557c-22.182-17.041-34.903-42.758-34.903-70.556    c0-49.086,39.934-89.019,89.019-89.019c49.086,0,89.019,39.934,89.019,89.019S389.129,300.786,340.043,300.786z"/>
	</g>
</g>
<g>
	<g>
		<path d="M348.89,256.553h-0.553v-54.186h0.553c4.58,0,8.294-3.713,8.294-8.294c0-4.58-3.713-8.294-8.294-8.294h-17.693    c-4.58,0-8.294,3.713-8.294,8.294c0,4.58,3.713,8.294,8.294,8.294h0.553v54.186h-0.553c-4.58,0-8.294,3.713-8.294,8.294    c0,4.58,3.713,8.294,8.294,8.294h17.693c4.58,0,8.294-3.713,8.294-8.294C357.184,260.266,353.47,256.553,348.89,256.553z"/>
	</g>
</g>
<g>
	<g>
		<path d="M216.19,291.94h-61.927c-4.58,0-8.294,3.713-8.294,8.294c0,4.58,3.713,8.294,8.294,8.294h61.927    c4.58,0,8.294-3.713,8.294-8.294C224.484,295.653,220.77,291.94,216.19,291.94z"/>
	</g>
</g>
<g>
	<g>
		<path d="M180.803,256.553h-26.54c-4.58,0-8.294,3.713-8.294,8.294c0,4.58,3.713,8.294,8.294,8.294h26.54    c4.58,0,8.294-3.713,8.294-8.294C189.097,260.266,185.384,256.553,180.803,256.553z"/>
	</g>
</g>
<g>
	<g>
		<path d="M216.19,327.326h-61.927c-4.58,0-8.294,3.713-8.294,8.294c0,4.58,3.713,8.294,8.294,8.294h61.927    c4.58,0,8.294-3.713,8.294-8.294C224.484,331.039,220.77,327.326,216.19,327.326z"/>
	</g>
</g>
<g>
	<g>
		<path d="M171.957,389.253h-17.693c-4.58,0-8.294,3.713-8.294,8.294c0,4.58,3.713,8.294,8.294,8.294h17.693    c4.58,0,8.294-3.713,8.294-8.294C180.251,392.966,176.537,389.253,171.957,389.253z"/>
	</g>
</g>
<g>
	<g>
		<path d="M295.81,389.253h-17.693c-4.58,0-8.294,3.713-8.294,8.294c0,4.58,3.713,8.294,8.294,8.294h17.693    c4.58,0,8.294-3.713,8.294-8.294C304.104,392.966,300.39,389.253,295.81,389.253z"/>
	</g>
</g>
<g>
	<g>
		<path d="M233.883,389.253H216.19c-4.58,0-8.294,3.713-8.294,8.294c0,4.58,3.713,8.294,8.294,8.294h17.693    c4.58,0,8.294-3.713,8.294-8.294C242.177,392.966,238.464,389.253,233.883,389.253z"/>
	</g>
</g>
<g>
</g>
<g>
</g>
<g>
</g>
<g>
</g>
<g>
</g>
<g>
</g>
<g>
</g>
<g>
</g>
<g>
</g>
<g>
</g>
<g>
</g>
<g>
</g>
<g>
</g>
<g>
</g>
<g>
</g>
</svg>
