<?xml version="1.0" encoding="iso-8859-1"?>
<!-- Generator: Adobe Illustrator 19.0.0, SVG Export Plug-In . SVG Version: 6.00 Build 0)  -->
<svg xmlns="http://www.w3.org/2000/svg" xmlns:xlink="http://www.w3.org/1999/xlink" version="1.1" id="Layer_1" x="0px" y="0px" viewBox="0 0 512.002 512.002" style="enable-background:new 0 0 512.002 512.002;" xml:space="preserve">
<g>
	<g>
		<path d="M134.423,424.999c-1.105-4.288-5.478-6.864-9.763-5.761c-4.287,1.105-6.866,5.477-5.761,9.764    c0.549,2.128,0.827,4.336,0.827,6.562c0,14.439-11.748,26.187-26.187,26.187c-14.439,0-26.187-11.748-26.187-26.187    s11.747-26.187,26.186-26.187c2.222,0,4.427,0.278,6.552,0.824c4.287,1.103,8.659-1.477,9.762-5.764    c1.104-4.288-1.477-8.659-5.764-9.762c-3.43-0.883-6.98-1.331-10.55-1.331c-23.28,0-42.22,18.94-42.22,42.22    c0,23.28,18.94,42.22,42.22,42.22s42.22-18.94,42.22-42.22C135.758,431.989,135.309,428.435,134.423,424.999z"/>
	</g>
</g>
<g>
	<g>
		<path d="M339.647,424.998c-1.106-4.287-5.48-6.863-9.764-5.76c-4.287,1.105-6.866,5.477-5.761,9.764    c0.549,2.128,0.827,4.336,0.827,6.562c0,14.439-11.748,26.187-26.187,26.187s-26.187-11.748-26.187-26.187    s11.748-26.187,26.187-26.187c2.222,0,4.427,0.278,6.553,0.824c4.288,1.103,8.659-1.477,9.762-5.765    c1.104-4.287-1.477-8.659-5.766-9.762c-3.43-0.883-6.98-1.331-10.55-1.331c-23.28,0-42.22,18.94-42.22,42.22    s18.94,42.22,42.22,42.22s42.22-18.94,42.22-42.22C340.982,431.988,340.533,428.434,339.647,424.998z"/>
	</g>
</g>
<g>
	<g>
		<path d="M374.237,423.364c-4.512-29.049-25.867-53.084-54.402-61.233c-13.435-3.837-26.925-4.008-40.187-0.521l-43.843-65.763    c1.705-4.631,2.565-9.39,2.565-14.2c0-5.018-0.884-9.833-2.498-14.301l81.918-122.877c6.256-9.383,8.483-20.641,6.271-31.699    c-2.211-11.059-8.597-20.593-17.981-26.849c-1.768-1.18-3.935-1.609-6.019-1.191c-2.085,0.417-3.919,1.645-5.099,3.414    l-98.814,148.222L97.335,88.144c-2.455-3.683-7.433-4.68-11.116-2.223c-9.384,6.255-15.769,15.79-17.981,26.849    s0.015,22.316,6.271,31.699l81.985,122.979c-1.705,4.631-2.565,9.39-2.565,14.2c0,5.018,0.884,9.833,2.498,14.3l-43.774,65.663    c-13.261-3.487-26.751-3.317-40.187,0.521c-28.537,8.149-49.891,32.185-54.402,61.233c-3.92,25.234,4.281,49.758,22.499,67.283    c14.477,13.926,33.162,21.354,52.863,21.353c5.099,0,10.268-0.498,15.445-1.509c29.343-5.729,53.199-29.242,59.363-58.508    c4.702-22.324-0.321-44.757-13.796-62.483l41.714-62.571l41.714,62.571c-13.476,17.726-18.499,40.157-13.796,62.483    c6.164,29.266,30.019,52.779,59.363,58.509c5.18,1.011,10.346,1.509,15.445,1.509c19.699,0,38.387-7.428,52.863-21.353    C369.956,473.122,378.156,448.598,374.237,423.364z M303.168,104.743c2.564,3.217,4.343,7.021,5.172,11.172    c1.372,6.859-0.01,13.842-3.89,19.662l-77.883,116.824c-4.21-4.377-9.357-7.843-15.111-10.09L303.168,104.743z M137.796,385.558    c-2.03,3.041-1.742,7.069,0.696,9.793c13.007,14.53,18.129,33.966,14.051,53.327c-4.855,23.048-23.64,41.565-46.747,46.077    c-19.987,3.904-39.715-1.805-54.12-15.662c-14.4-13.853-20.877-33.267-17.77-53.267c3.501-22.538,20.766-41.939,42.962-48.278    c12.228-3.493,24.513-3.144,36.513,1.037c3.451,1.201,7.28-0.082,9.308-3.123l43.044-64.567    c4.211,4.378,9.358,7.844,15.112,10.091L137.796,385.558z M340.623,479.093c-14.405,13.857-34.131,19.565-54.12,15.662    c-23.107-4.513-41.893-23.03-46.747-46.078c-4.078-19.359,1.044-38.796,14.051-53.326c2.438-2.724,2.726-6.752,0.697-9.794    l-49.577-74.365c-1.492-2.238-4-3.57-6.669-3.57c-0.165,0-0.33,0.005-0.495,0.015c-0.51,0.031-1.009,0.093-1.507,0.162    c-0.082,0.012-0.164,0.023-0.245,0.034c-14.376-0.076-26.048-11.794-26.048-26.187c0-3.863,0.941-7.729,2.797-11.494    c1.266-2.565,1.068-5.612-0.519-7.992L87.849,135.575c-3.88-5.82-5.261-12.803-3.89-19.662c0.829-4.15,2.607-7.955,5.172-11.172    l98.24,147.36c1.584,2.376,4.312,3.729,7.164,3.555c0.51-0.031,1.009-0.093,1.508-0.162c0.082-0.012,0.164-0.023,0.245-0.034    c14.376,0.076,26.048,11.794,26.048,26.187c0,3.862-0.941,7.729-2.797,11.494c-1.266,2.565-1.068,5.612,0.519,7.992l49.552,74.329    c2.028,3.042,5.857,4.326,9.308,3.123c11.999-4.18,24.283-4.53,36.513-1.037c22.197,6.338,39.462,25.739,42.962,48.278    C361.5,445.824,355.023,465.239,340.623,479.093z"/>
	</g>
</g>
<g>
	<g>
		<path d="M196.236,273.63h-0.086c-4.427,0-7.974,3.589-7.974,8.017s3.632,8.017,8.059,8.017c4.427,0,8.016-3.589,8.016-8.017    S200.663,273.63,196.236,273.63z"/>
	</g>
</g>
<g>
	<g>
		<path d="M375.719,0h-17.102c-4.427,0-8.017,3.589-8.017,8.017c0,4.427,3.589,8.016,8.017,8.016h17.102    c4.427,0,8.017-3.589,8.017-8.016C383.736,3.589,380.147,0,375.719,0z"/>
	</g>
</g>
<g>
	<g>
		<path d="M273.108,0h-17.102c-4.427,0-8.017,3.589-8.017,8.017c0,4.427,3.589,8.016,8.017,8.016h17.102    c4.427,0,8.017-3.589,8.017-8.016C281.124,3.589,277.535,0,273.108,0z"/>
	</g>
</g>
<g>
	<g>
		<path d="M221.802,0h-25.653c-4.427,0-8.016,3.589-8.016,8.017v25.653c0,4.427,3.589,8.017,8.016,8.017s8.017-3.589,8.017-8.017    V16.033h17.636c4.427,0,8.016-3.589,8.016-8.016C229.819,3.589,226.229,0,221.802,0z"/>
	</g>
</g>
<g>
	<g>
		<path d="M324.413,0h-17.102c-4.427,0-8.017,3.589-8.017,8.017c0,4.427,3.589,8.016,8.017,8.016h17.102    c4.427,0,8.017-3.589,8.017-8.016C332.43,3.589,328.841,0,324.413,0z"/>
	</g>
</g>
<g>
	<g>
		<path d="M427.025,0h-17.102c-4.427,0-8.016,3.589-8.016,8.017c0,4.427,3.589,8.016,8.016,8.016h17.102    c4.427,0,8.017-3.589,8.017-8.016C435.041,3.589,431.453,0,427.025,0z"/>
	</g>
</g>
<g>
	<g>
		<path d="M375.719,290.732h-17.102c-4.427,0-8.017,3.589-8.017,8.017s3.589,8.016,8.017,8.016h17.102    c4.427,0,8.017-3.589,8.017-8.016S380.147,290.732,375.719,290.732z"/>
	</g>
</g>
<g>
	<g>
		<path d="M273.108,290.732h-8.551c-4.427,0-8.017,3.589-8.017,8.017s3.589,8.016,8.017,8.016h8.551    c4.427,0,8.017-3.589,8.017-8.016S277.535,290.732,273.108,290.732z"/>
	</g>
</g>
<g>
	<g>
		<path d="M324.413,290.732h-17.102c-4.427,0-8.017,3.589-8.017,8.017s3.589,8.016,8.017,8.016h17.102    c4.427,0,8.017-3.589,8.017-8.016S328.842,290.732,324.413,290.732z"/>
	</g>
</g>
<g>
	<g>
		<path d="M427.025,290.732h-17.102c-4.427,0-8.016,3.589-8.016,8.017s3.589,8.016,8.016,8.016h17.102    c4.427,0,8.017-3.589,8.017-8.016S431.453,290.732,427.025,290.732z"/>
	</g>
</g>
<g>
	<g>
		<path d="M486.882,162.468c-4.427,0-8.017,3.589-8.017,8.017v17.102c0,4.427,3.589,8.017,8.017,8.017    c4.427,0,8.016-3.589,8.016-8.017v-17.102C494.898,166.057,491.31,162.468,486.882,162.468z"/>
	</g>
</g>
<g>
	<g>
		<path d="M486.882,59.857c-4.427,0-8.017,3.589-8.017,8.016v17.102c0,4.427,3.589,8.016,8.017,8.016    c4.427,0,8.016-3.589,8.016-8.016V67.873C494.898,63.446,491.31,59.857,486.882,59.857z"/>
	</g>
</g>
<g>
	<g>
		<path d="M486.882,111.162c-4.427,0-8.017,3.589-8.017,8.017v17.102c0,4.427,3.589,8.016,8.017,8.016    c4.427,0,8.016-3.589,8.016-8.016v-17.102C494.898,114.752,491.31,111.162,486.882,111.162z"/>
	</g>
</g>
<g>
	<g>
		<path d="M196.149,162.468c-4.427,0-8.016,3.589-8.016,8.017v17.102c0,4.427,3.589,8.017,8.016,8.017s8.017-3.589,8.017-8.017    v-17.102C204.166,166.057,200.576,162.468,196.149,162.468z"/>
	</g>
</g>
<g>
	<g>
		<path d="M196.149,59.857c-4.427,0-8.016,3.589-8.016,8.016v17.102c0,4.427,3.589,8.016,8.016,8.016s8.017-3.589,8.017-8.016    V67.873C204.166,63.446,200.576,59.857,196.149,59.857z"/>
	</g>
</g>
<g>
	<g>
		<path d="M196.149,111.162c-4.427,0-8.016,3.589-8.016,8.017v17.102c0,4.427,3.589,8.016,8.016,8.016s8.017-3.589,8.017-8.016    v-17.102C204.166,114.752,200.576,111.162,196.149,111.162z"/>
	</g>
</g>
<g>
	<g>
		<path d="M486.882,213.774c-4.427,0-8.017,3.589-8.017,8.017v17.102c0,4.427,3.589,8.017,8.017,8.017    c4.427,0,8.016-3.589,8.016-8.017V221.79C494.898,217.363,491.31,213.774,486.882,213.774z"/>
	</g>
</g>
<g>
	<g>
		<path d="M486.882,0h-25.653c-4.427,0-8.016,3.589-8.016,8.017c0,4.427,3.589,8.016,8.016,8.016h17.636v17.636    c0,4.427,3.589,8.017,8.017,8.017c4.427,0,8.016-3.589,8.016-8.017V8.017C494.898,3.589,491.31,0,486.882,0z"/>
	</g>
</g>
<g>
	<g>
		<path d="M486.882,265.08c-4.427,0-8.017,3.589-8.017,8.016v17.636h-17.636c-4.427,0-8.016,3.589-8.016,8.017    s3.589,8.016,8.016,8.016h25.653c4.427,0,8.016-3.589,8.016-8.016v-25.653C494.898,268.669,491.31,265.08,486.882,265.08z"/>
	</g>
</g>
<g>
</g>
<g>
</g>
<g>
</g>
<g>
</g>
<g>
</g>
<g>
</g>
<g>
</g>
<g>
</g>
<g>
</g>
<g>
</g>
<g>
</g>
<g>
</g>
<g>
</g>
<g>
</g>
<g>
</g>
</svg>
