<?xml version="1.0" encoding="iso-8859-1"?>
<!-- Generator: Adobe Illustrator 19.0.0, SVG Export Plug-In . SVG Version: 6.00 Build 0)  -->
<svg xmlns="http://www.w3.org/2000/svg" xmlns:xlink="http://www.w3.org/1999/xlink" version="1.1" id="Layer_1" x="0px" y="0px" viewBox="0 0 512 512" style="enable-background:new 0 0 512 512;" xml:space="preserve">
<g>
	<g>
		<path d="M506.827,153.306c-4.217-5.025-10.617-7.909-17.559-7.909h-97.924l82.107-27.587c4.266-1.433,6.562-6.054,5.129-10.32    c-1.434-4.267-6.056-6.562-10.319-5.129l-44.95,15.102c8.411-5.702,15.773-11.369,20.929-16.584    c8.446-8.542,13.19-19.771,13.013-30.806c-0.148-9.212-3.728-17.605-10.08-23.63c-14.347-13.606-39.009-11.539-54.977,4.61    c-15.346,15.519-34.154,50.24-46.148,74.198c-0.608-3.994-1.294-8.245-2.061-12.637c-5.113-29.248-11.157-49.505-17.964-60.207    c-4.756-7.475-12.344-12.564-21.367-14.329c-10.713-2.097-22.466,0.687-32.243,7.634c-18.364,13.051-24.701,37.189-14.128,53.811    c4.273,6.718,11.772,14.124,20.505,21.396l-48.405-18.45c-4.207-1.603-8.915,0.507-10.517,4.712    c-1.603,4.206,0.507,8.915,4.712,10.517l72.667,27.697H193.744c-13.581,0-26.089,10.593-28.475,24.118l-49.044,278.141    c-1.234,7.003,0.51,13.943,4.785,19.039c4.217,5.026,10.617,7.909,17.559,7.909h295.525c13.582,0,26.09-10.593,28.475-24.118    l49.043-278.14C512.847,165.343,511.104,158.403,506.827,153.306z M403.784,62.515c9.779-9.889,24.212-11.794,32.173-4.244    c4.034,3.826,4.946,8.673,5.001,12.067c0.108,6.682-2.92,13.639-8.306,19.085c-14.482,14.645-50.398,34.365-73.583,46.288    C370.5,112.637,389.369,77.094,403.784,62.515z M272.036,90.778c-5.89-9.257-1.394-23.809,9.818-31.778    c4.873-3.464,10.386-5.31,15.624-5.31c1.374,0,2.729,0.127,4.049,0.385c3.251,0.636,7.753,2.38,10.744,7.084    c9.078,14.27,15.782,51.984,19.167,76.894C310.954,125.351,281.005,104.876,272.036,90.778z M305.719,161.696l-4.438,25.171    l-20.733-25.171H305.719z M259.434,161.697v-0.001l38.124,46.285l-10.071,57.113L202.32,161.697H259.434z M181.32,172.346    c0.416-2.359,1.67-4.59,3.389-6.401l99.056,120.262l-10.071,57.113L172.777,220.799L181.32,172.346z M138.569,458.308    c-2.173,0-3.928-0.721-5.073-2.087c-1.189-1.417-1.622-3.453-1.22-5.733l9.19-52.119l49.37,59.939H138.569z M194.117,367.319    l62.059,75.345l-2.759,15.644H211.95v0l-66.76-81.053l10.071-57.113l17.403,21.129c1.611,1.956,3.943,2.967,6.294,2.967    c1.823,0,3.658-0.61,5.176-1.859c3.474-2.861,3.97-7.997,1.109-11.471l-26.26-31.881l10.071-57.113l100.917,122.522L259.9,421.55    l-53.203-64.592c-2.861-3.474-7.997-3.971-11.47-1.109C191.753,358.709,191.257,363.845,194.117,367.319z M269.967,458.308    l52.3-296.611h35.602l-52.3,296.611H269.967z M322.12,458.308l4.438-25.172l20.733,25.172H322.12z M368.404,458.308    l-38.124-46.286l10.071-57.113l85.167,103.399H368.404z M446.518,447.657c-0.416,2.359-1.669,4.59-3.388,6.401l-99.057-120.262    l10.071-57.113l100.917,122.521L446.518,447.657z M472.579,299.862l-60.358-73.278c-2.861-3.474-7.997-3.971-11.47-1.109    c-3.474,2.861-3.97,7.997-1.109,11.47l69.214,84.031l-10.071,57.113L357.867,255.568l10.071-57.113l10.235,12.426    c1.611,1.957,3.943,2.968,6.294,2.968c1.823,0,3.658-0.609,5.176-1.859c3.473-2.861,3.97-7.997,1.109-11.47l-19.092-23.179    l2.759-15.644h41.469l66.76,81.052L472.579,299.862z M495.563,169.516l-9.19,52.119l-49.37-59.938h52.267    c2.173,0,3.929,0.721,5.074,2.086C495.532,165.199,495.966,167.235,495.563,169.516z"/>
	</g>
</g>
<g>
	<g>
		<path d="M138.527,171.475H8.149c-4.5,0-8.149,3.648-8.149,8.149c0,4.5,3.648,8.149,8.149,8.149h130.379    c4.5,0,8.149-3.648,8.149-8.149C146.676,175.123,143.027,171.475,138.527,171.475z"/>
	</g>
</g>
<g>
	<g>
		<path d="M121.143,275.778H60.3c-4.5,0-8.149,3.648-8.149,8.149s3.648,8.149,8.149,8.149h60.843c4.5,0,8.149-3.648,8.149-8.149    S125.644,275.778,121.143,275.778z"/>
	</g>
</g>
<g>
	<g>
		<path d="M129.835,223.626H34.224c-4.5,0-8.149,3.648-8.149,8.149c0,4.5,3.648,8.149,8.149,8.149h95.611    c4.5,0,8.149-3.648,8.149-8.149C137.984,227.275,134.336,223.626,129.835,223.626z"/>
	</g>
</g>
<g>
</g>
<g>
</g>
<g>
</g>
<g>
</g>
<g>
</g>
<g>
</g>
<g>
</g>
<g>
</g>
<g>
</g>
<g>
</g>
<g>
</g>
<g>
</g>
<g>
</g>
<g>
</g>
<g>
</g>
</svg>
