<?xml version="1.0" encoding="iso-8859-1"?>
<!-- Generator: Adobe Illustrator 19.0.0, SVG Export Plug-In . SVG Version: 6.00 Build 0)  -->
<svg xmlns="http://www.w3.org/2000/svg" xmlns:xlink="http://www.w3.org/1999/xlink" version="1.1" id="Layer_1" x="0px" y="0px" viewBox="0 0 511.999 511.999" style="enable-background:new 0 0 511.999 511.999;" xml:space="preserve">
<g>
	<g>
		<path d="M255.999,0C157.276,0,76.96,80.317,76.96,179.04c0,39.125,9.618,76.416,29.402,114.005    c17.494,33.236,41.307,63.889,64.336,93.532c28.799,37.071,58.58,75.405,77.933,120.564c1.263,2.947,4.162,4.858,7.369,4.858    c3.207,0,6.106-1.911,7.369-4.858c19.353-45.159,49.134-83.492,77.933-120.564c23.029-29.644,46.842-60.296,64.336-93.532    c19.784-37.589,29.402-74.88,29.402-114.005C435.039,80.317,354.723,0,255.999,0z M328.639,376.741    c-26.029,33.505-52.84,68.015-72.64,108.11c-19.8-40.094-46.611-74.604-72.64-108.11c-46.472-59.82-90.366-116.322-90.366-197.701    c0-89.882,73.124-163.006,163.006-163.006S419.006,89.157,419.006,179.04C419.006,260.419,375.112,316.922,328.639,376.741z"/>
	</g>
</g>
<g>
	<g>
		<path d="M374.203,163.567c-6.831-54.145-51.261-97.491-105.642-103.065c-23.535-2.414-46.901,2.008-67.578,12.786    c-3.926,2.047-5.45,6.888-3.403,10.815s6.888,5.45,10.815,3.403c17.887-9.324,38.124-13.146,58.532-11.055    c47.036,4.822,85.462,42.303,91.369,89.122c4.061,32.181-6.636,63.669-29.345,86.387c-22.711,22.719-54.193,33.426-86.375,29.378    c-21.908-2.756-42.82-12.961-58.884-28.737c-16.071-15.781-26.636-36.5-29.751-58.338c-3.843-26.946,2.666-53.75,18.327-75.477    c0.022-0.031,0.185-0.142,0.446-0.142h17.067c0.234,0,0.445,0.156,0.512,0.381l20.169,67.229    c3.21,10.709,12.879,17.903,24.058,17.903h55.685c13.851,0,25.119-11.268,25.119-25.119v-51.307c0-4.427-3.589-8.017-8.017-8.017    h-100.07l-1.588-5.295c-2.119-7.062-8.496-11.807-15.869-11.807h-17.067c-5.353,0-10.382,2.542-13.451,6.8    c-18.099,25.106-25.625,56.045-21.193,87.116c3.609,25.303,15.822,49.279,34.39,67.513c18.555,18.221,42.746,30.015,68.117,33.205    c5.156,0.649,10.291,0.968,15.392,0.968c31.633-0.001,61.729-12.317,84.323-34.92C366.527,237.05,378.888,200.7,374.203,163.567z     M299.29,135.749v43.29c0,5.01-4.076,9.086-9.086,9.086h-55.685c-4.044,0-7.541-2.602-8.703-6.475l-13.769-45.9H299.29z"/>
	</g>
</g>
<g>
	<g>
		<path d="M213.244,213.779c-9.136,0-16.568,7.432-16.568,16.568s7.432,16.568,16.568,16.568s16.568-7.432,16.568-16.568    S222.38,213.779,213.244,213.779z"/>
	</g>
</g>
<g>
	<g>
		<path d="M298.755,213.779c-9.136,0-16.568,7.432-16.568,16.568s7.432,16.568,16.568,16.568c9.136,0,16.568-7.432,16.568-16.568    S307.891,213.779,298.755,213.779z"/>
	</g>
</g>
<g>
</g>
<g>
</g>
<g>
</g>
<g>
</g>
<g>
</g>
<g>
</g>
<g>
</g>
<g>
</g>
<g>
</g>
<g>
</g>
<g>
</g>
<g>
</g>
<g>
</g>
<g>
</g>
<g>
</g>
</svg>
