<?xml version="1.0" encoding="iso-8859-1"?>
<!-- Generator: Adobe Illustrator 19.0.0, SVG Export Plug-In . SVG Version: 6.00 Build 0)  -->
<svg xmlns="http://www.w3.org/2000/svg" xmlns:xlink="http://www.w3.org/1999/xlink" version="1.1" id="Layer_1" x="0px" y="0px" viewBox="0 0 512 512" style="enable-background:new 0 0 512 512;" xml:space="preserve">
<g>
	<g>
		<path d="M512,34.874c0.039-9.349-3.569-18.126-10.158-24.716C495.253,3.569,486.526-0.041,477.127,0    c-9.322,0.039-18.098,3.703-24.71,10.314c-2.798,2.798-7.892,8.848-10.679,12.205c-2.926,3.525-2.442,8.754,1.083,11.68    c3.524,2.926,8.754,2.442,11.68-1.083c4.366-5.258,7.972-9.396,9.646-11.071c3.498-3.498,8.132-5.436,13.05-5.456    c0.026,0,0.052,0,0.078,0c4.862,0,9.419,1.88,12.837,5.3c3.437,3.437,5.32,8.024,5.299,12.916    c-0.021,4.917-1.959,9.551-5.457,13.05c-3.13,3.131-13.892,11.668-29.312,22.439c-9.121-15.594-26.037-26.099-45.37-26.099    H293.808c-16.395,0-31.81,6.385-43.405,17.978L7.613,304.965C2.704,309.874,0,316.401,0,323.343s2.704,13.47,7.613,18.378    l162.667,162.667c4.908,4.908,11.436,7.613,18.378,7.613c6.942,0,13.469-2.704,18.378-7.613l242.792-242.791    c11.593-11.594,17.978-27.008,17.978-43.405V96.729c0-3.584-0.363-7.085-1.051-10.469c17.551-12.077,30.436-22.181,34.929-26.674    C508.297,52.972,511.961,44.197,512,34.874z M451.217,218.192c0,11.965-4.66,23.213-13.119,31.673L195.306,492.658    c-3.665,3.665-9.629,3.666-13.295,0L19.344,329.991c-3.665-3.665-3.665-9.63,0-13.295L262.135,73.904    c8.461-8.46,19.709-13.119,31.673-13.119h121.463c13.64,0,25.53,7.638,31.618,18.86c-9.798,6.488-20.768,13.387-32.408,20.171    c-0.363-0.398-0.734-0.793-1.119-1.178c-13.584-13.584-35.686-13.584-49.27,0c-13.584,13.584-13.584,35.686,0,49.27    c6.792,6.792,15.714,10.187,24.635,10.187c8.921,0,17.843-3.395,24.635-10.187c9.067-9.067,12.073-21.926,9.036-33.517    c10.123-5.892,19.844-11.916,28.815-17.742c0.001,0.027,0.003,0.053,0.003,0.081V218.192z M381.319,127    c1.457,2.897,4.381,4.569,7.417,4.569c1.253,0,2.526-0.285,3.722-0.887c4.862-2.446,9.707-4.99,14.504-7.596    c0.048,4.735-1.723,9.485-5.328,13.091c-7.116,7.116-18.692,7.116-25.808,0c-7.115-7.116-7.115-18.692,0-25.808    c3.558-3.558,8.231-5.336,12.904-5.336c3.7,0,7.389,1.134,10.536,3.363c-4.695,2.552-9.46,5.051-14.263,7.468    C380.908,117.921,379.259,122.908,381.319,127z"/>
	</g>
</g>
<g>
	<g>
		<path d="M236.654,337.91l-62.564-62.564c-3.239-3.239-8.492-3.239-11.73,0c-3.239,3.239-3.239,8.492,0,11.73l25.417,25.417    l-32.065,32.065l-25.417-25.417c-3.239-3.239-8.492-3.239-11.73,0c-3.239,3.239-3.239,8.492,0,11.73l62.564,62.564    c1.619,1.619,3.743,2.43,5.865,2.43s4.246-0.81,5.865-2.43c3.239-3.239,3.239-8.492,0-11.73l-25.417-25.417l32.065-32.065    l25.417,25.417c1.619,1.619,3.743,2.43,5.865,2.43s4.246-0.81,5.865-2.43C239.893,346.401,239.893,341.148,236.654,337.91z"/>
	</g>
</g>
<g>
	<g>
		<path d="M283.578,247.193l-18.77-18.77c-15.308-15.309-40.217-15.309-55.525,0c-15.308,15.308-15.308,40.217,0,55.525l18.77,18.77    c7.653,7.655,17.708,11.481,27.763,11.481c10.055,0,20.109-3.827,27.763-11.481C298.886,287.41,298.886,262.501,283.578,247.193z     M271.847,290.987c-8.84,8.84-23.224,8.84-32.064,0l-18.77-18.77c-8.84-8.84-8.84-23.223,0-32.064    c4.421-4.421,10.226-6.63,16.032-6.63c5.806,0,11.612,2.21,16.032,6.63l18.77,18.77    C280.687,267.764,280.687,282.147,271.847,290.987z"/>
	</g>
</g>
<g>
	<g>
		<path d="M349.268,225.296l-56.697-56.7l19.16-19.16c3.239-3.239,3.239-8.492,0-11.73c-3.239-3.24-8.492-3.24-11.73,0    l-50.052,50.052c-3.239,3.239-3.239,8.492,0,11.73c1.619,1.619,3.743,2.43,5.865,2.43c2.122,0,4.246-0.81,5.865-2.43l19.16-19.16    l56.698,56.699c1.619,1.619,3.743,2.43,5.865,2.43c2.122,0,4.246-0.81,5.865-2.43    C352.508,233.787,352.508,228.534,349.268,225.296z"/>
	</g>
</g>
<g>
</g>
<g>
</g>
<g>
</g>
<g>
</g>
<g>
</g>
<g>
</g>
<g>
</g>
<g>
</g>
<g>
</g>
<g>
</g>
<g>
</g>
<g>
</g>
<g>
</g>
<g>
</g>
<g>
</g>
</svg>
