<?xml version="1.0" encoding="iso-8859-1"?>
<!-- Generator: Adobe Illustrator 19.0.0, SVG Export Plug-In . SVG Version: 6.00 Build 0)  -->
<svg xmlns="http://www.w3.org/2000/svg" xmlns:xlink="http://www.w3.org/1999/xlink" version="1.1" id="Layer_1" x="0px" y="0px" viewBox="0 0 512.001 512.001" style="enable-background:new 0 0 512.001 512.001;" xml:space="preserve">
<g>
	<g>
		<path d="M436.003,421.761c-1.462-10.632-7.621-19.724-16.9-24.943l-88.568-49.819c-13.557-7.626-30.708-5.27-41.708,5.729    l-31.101,31.101c-6.371,6.371-16.571,7.165-23.729,1.847c-21.488-15.966-42.489-34.167-62.421-54.099    c-19.931-19.931-38.132-40.933-54.099-62.421c-5.318-7.157-4.524-17.358,1.847-23.729l31.101-31.101    c11-11,13.356-28.151,5.729-41.708l-49.818-88.568c-5.219-9.279-14.31-15.438-24.943-16.899    c-11.141-1.53-22.176,2.239-30.278,10.344l-32.803,32.803C-4.862,133.472-6.08,174.96,14.881,227.121    c20.051,49.898,58.206,104.49,107.434,153.718c49.229,49.23,103.82,87.384,153.718,107.434    c24.708,9.929,47.018,14.881,66.124,14.881c21.228,0,38.501-6.115,50.698-18.312l32.803-32.803    C433.762,443.936,437.532,432.9,436.003,421.761z M413.929,440.311l-5.733,5.731l-75.506-41.185    c-4.022-2.196-9.059-0.712-11.252,3.31c-2.194,4.021-0.712,9.059,3.31,11.252l71.223,38.849l-14.846,14.846    c-17.915,17.914-53.966,17.829-98.909-0.23c-47.869-19.237-100.491-56.09-148.174-103.773    C86.362,321.428,49.507,268.805,30.271,220.936c-18.06-44.945-18.144-80.995-0.23-98.909l14.843-14.846l7.94,14.556    c1.506,2.76,4.351,4.324,7.288,4.324c1.341,0,2.703-0.326,3.963-1.014c4.021-2.194,5.504-7.232,3.31-11.253L57.112,94.956    l5.731-5.731c3.768-3.766,8.66-5.815,13.723-5.815c0.853,0,1.712,0.059,2.57,0.176c5.445,0.748,10.091,3.881,12.743,8.598    l49.818,88.568c3.994,7.102,2.761,16.085-3.001,21.846l-14.799,14.8L85.06,146.196c-2.193-4.021-7.231-5.504-11.252-3.31    c-4.021,2.193-5.504,7.231-3.31,11.252l41.174,75.484l-4.076,4.076c-12.144,12.144-13.619,31.641-3.432,45.351    c16.448,22.135,35.182,43.755,55.683,64.257c20.502,20.502,42.122,39.237,64.257,55.683c13.709,10.188,33.205,8.712,45.351-3.432    l4.076-4.076l18.834,10.273c1.262,0.689,2.622,1.014,3.963,1.014c2.937,0,5.782-1.564,7.288-4.324    c2.194-4.021,0.712-9.059-3.31-11.252l-14.551-7.938l14.799-14.799c5.761-5.761,14.745-6.995,21.848-3.001l88.568,49.818    c4.716,2.653,7.85,7.298,8.598,12.743C420.386,429.97,418.331,435.909,413.929,440.311z"/>
	</g>
</g>
<g>
	<g>
		<path d="M397.548,221.163h-9.399v-71.325c0-4.58-3.713-8.294-8.294-8.294c-4.58,0-8.294,3.713-8.294,8.294v71.325h-43.293    l15.45-69.526c0.993-4.471-1.826-8.902-6.298-9.895c-4.473-0.995-8.901,1.826-9.895,6.297l-17.693,79.619    c-0.546,2.456,0.052,5.026,1.627,6.989c1.574,1.962,3.953,3.104,6.469,3.104h53.632v27.092c0,4.58,3.713,8.294,8.294,8.294    c4.58,0,8.294-3.713,8.294-8.294V237.75h9.399c4.58,0,8.294-3.713,8.294-8.294C405.841,224.876,402.128,221.163,397.548,221.163z"/>
	</g>
</g>
<g>
	<g>
		<path d="M291.39,256.549h-61.039c3.608-9.501,13.818-15.543,28.544-23.579c18.173-9.917,40.789-22.259,40.789-50.274    c0-22.691-19.595-41.152-43.68-41.152s-43.68,18.46-43.68,41.152c0,4.58,3.713,8.294,8.294,8.294c4.58,0,8.294-3.713,8.294-8.294    c0-13.545,12.154-24.565,27.092-24.565c14.938,0,27.092,11.019,27.092,24.565c-0.001,16.948-12.145,24.798-32.148,35.713    c-18.104,9.88-38.625,21.079-38.625,46.433c0,4.58,3.713,8.294,8.294,8.294h70.772c4.58,0,8.294-3.713,8.294-8.294    S295.97,256.549,291.39,256.549z"/>
	</g>
</g>
<g>
	<g>
		<path d="M466.694,354.022l-16.152,3.23c39.25-38.12,61.458-90.257,61.458-145.489C512,99.875,420.972,8.846,309.083,8.846    c-65.942,0-128.006,32.23-166.02,86.216c-2.637,3.745-1.739,8.919,2.006,11.557c3.744,2.637,8.918,1.739,11.556-2.006    c34.913-49.58,91.906-79.18,152.459-79.18c102.742,0,186.33,83.587,186.33,186.33c0,51.459-21.008,99.983-58.043,135.117    l3.698-18.486c0.898-4.492-2.015-8.861-6.507-9.759c-4.491-0.899-8.861,2.015-9.759,6.507l-8.846,44.233    c-0.544,2.719,0.307,5.53,2.268,7.491c1.57,1.57,3.687,2.429,5.864,2.429c0.541,0,1.085-0.053,1.627-0.161l44.233-8.847    c4.492-0.899,7.405-5.268,6.507-9.759C475.554,356.037,471.184,353.126,466.694,354.022z"/>
	</g>
</g>
<g>
	<g>
		<path d="M309.083,44.232c-4.58,0-8.294,3.713-8.294,8.294v17.693c0,4.58,3.713,8.294,8.294,8.294c4.58,0,8.294-3.713,8.294-8.294    V52.526C317.376,47.946,313.664,44.232,309.083,44.232z"/>
	</g>
</g>
<g>
	<g>
		<path d="M468.32,203.47h-17.693c-4.58,0-8.294,3.713-8.294,8.294c0,4.58,3.713,8.294,8.294,8.294h17.693    c4.58,0,8.294-3.713,8.294-8.294C476.614,207.183,472.9,203.47,468.32,203.47z"/>
	</g>
</g>
<g>
	<g>
		<path d="M190.649,133.809l-15.322-8.846c-3.968-2.291-9.039-0.931-11.329,3.035c-2.29,3.967-0.931,9.039,3.035,11.329    l15.322,8.846c1.306,0.754,2.732,1.112,4.139,1.112c2.866,0,5.654-1.488,7.19-4.148    C195.974,141.171,194.615,136.099,190.649,133.809z"/>
	</g>
</g>
<g>
	<g>
		<path d="M451.133,284.2l-15.322-8.847c-3.967-2.291-9.039-0.931-11.329,3.035s-0.932,9.039,3.035,11.329l15.322,8.846    c1.306,0.754,2.732,1.112,4.139,1.112c2.866,0,5.654-1.488,7.19-4.148C456.459,291.562,455.1,286.49,451.133,284.2z"/>
	</g>
</g>
<g>
	<g>
		<path d="M392.849,66.678c-3.967-2.291-9.039-0.931-11.329,3.035l-8.846,15.322c-2.29,3.967-0.931,9.039,3.035,11.329    c1.306,0.754,2.731,1.112,4.139,1.112c2.866,0,5.654-1.488,7.19-4.148l8.847-15.322C398.175,74.041,396.816,68.968,392.849,66.678    z"/>
	</g>
</g>
<g>
	<g>
		<path d="M242.457,327.162c-3.967-2.291-9.038-0.931-11.329,3.035l-8.846,15.322c-2.29,3.967-0.931,9.039,3.035,11.329    c1.306,0.754,2.732,1.112,4.139,1.112c2.866,0,5.654-1.488,7.19-4.148l8.847-15.322    C247.783,334.524,246.424,329.452,242.457,327.162z"/>
	</g>
</g>
<g>
	<g>
		<path d="M454.169,127.998c-2.29-3.967-7.364-5.326-11.329-3.035l-15.322,8.847c-3.967,2.29-5.326,7.362-3.035,11.329    c1.536,2.661,4.324,4.148,7.19,4.148c1.407,0,2.833-0.358,4.139-1.112l15.322-8.846    C455.1,137.037,456.459,131.964,454.169,127.998z"/>
	</g>
</g>
<g>
	<g>
		<path d="M193.684,278.389c-2.29-3.967-7.363-5.327-11.329-3.035l-15.322,8.847c-3.967,2.29-5.326,7.362-3.035,11.329    c1.536,2.661,4.324,4.148,7.19,4.148c1.407,0,2.833-0.358,4.139-1.112l15.322-8.846    C194.615,287.428,195.974,282.355,193.684,278.389z"/>
	</g>
</g>
<g>
	<g>
		<path d="M245.493,85.036l-8.846-15.322c-2.29-3.968-7.363-5.327-11.329-3.035c-3.967,2.29-5.326,7.363-3.035,11.329l8.847,15.322    c1.537,2.661,4.325,4.148,7.19,4.148c1.407,0,2.833-0.358,4.139-1.112C246.424,94.075,247.783,89.002,245.493,85.036z"/>
	</g>
</g>
<g>
	<g>
		<path d="M395.884,345.519l-8.846-15.322c-2.29-3.967-7.363-5.326-11.329-3.035c-3.967,2.29-5.326,7.362-3.035,11.329l8.846,15.322    c1.536,2.661,4.324,4.148,7.19,4.148c1.407,0,2.833-0.358,4.139-1.112C396.815,354.558,398.174,349.486,395.884,345.519z"/>
	</g>
</g>
<g>
</g>
<g>
</g>
<g>
</g>
<g>
</g>
<g>
</g>
<g>
</g>
<g>
</g>
<g>
</g>
<g>
</g>
<g>
</g>
<g>
</g>
<g>
</g>
<g>
</g>
<g>
</g>
<g>
</g>
</svg>
