<?xml version="1.0" encoding="iso-8859-1"?>
<!-- Generator: Adobe Illustrator 19.0.0, SVG Export Plug-In . SVG Version: 6.00 Build 0)  -->
<svg xmlns="http://www.w3.org/2000/svg" xmlns:xlink="http://www.w3.org/1999/xlink" version="1.1" id="Layer_1" x="0px" y="0px" viewBox="0 0 512 512" style="enable-background:new 0 0 512 512;" xml:space="preserve">
<g>
	<g>
		<path d="M391.107,179.896l-24.186-24.186c-3.13-3.13-7.29-4.853-11.715-4.853c-4.426,0-8.586,1.723-11.715,4.853l-0.378,0.378    l-73.314-73.315l0.378-0.378c3.13-3.129,4.853-7.29,4.853-11.715s-1.723-8.586-4.853-11.715l-24.186-24.186    c-6.459-6.46-16.972-6.459-23.43,0l-60.465,60.465c-6.459,6.459-6.459,16.97,0,23.43l24.186,24.186    c6.459,6.46,16.971,6.46,23.43,0l0.378-0.378l12.849,12.849l-12.471,12.471c-3.13,3.13-4.854,7.29-4.854,11.715    c0,1.573,0.228,3.109,0.649,4.581L7.357,383.003C2.613,387.746,0,394.055,0,400.764c0,6.709,2.613,13.018,7.357,17.762    c4.897,4.898,11.329,7.345,17.762,7.345c6.433,0,12.865-2.449,17.762-7.345l198.905-198.905c1.472,0.421,3.008,0.649,4.581,0.649    c4.426,0,8.586-1.723,11.715-4.853l12.471-12.471l12.849,12.849l-0.377,0.377c-3.13,3.13-4.854,7.29-4.854,11.715    c0,4.425,1.723,8.586,4.853,11.715l24.186,24.186c3.13,3.131,7.29,4.855,11.716,4.855s8.586-1.723,11.715-4.853l60.465-60.465    c3.13-3.13,4.854-7.29,4.854-11.715S394.237,183.024,391.107,179.896z M31.543,407.19c-3.542,3.541-9.306,3.541-12.849,0    c-1.716-1.716-2.662-3.998-2.662-6.425c0-2.427,0.945-4.708,2.662-6.424L216.135,196.9l12.849,12.849L31.543,407.19z     M246.744,204.082c-0.038,0.039-0.156,0.156-0.377,0.156s-0.339-0.118-0.378-0.156l-24.187-24.188    c-0.038-0.038-0.156-0.156-0.156-0.377s0.118-0.339,0.156-0.378l12.471-12.471l24.943,24.943L246.744,204.082z M379.769,191.987    l-60.466,60.466c-0.039,0.038-0.156,0.156-0.377,0.156s-0.339-0.118-0.378-0.156l-24.187-24.187    c-0.037-0.038-0.155-0.156-0.155-0.377s0.118-0.339,0.156-0.378l6.047-6.047c3.131-3.131,3.131-8.207,0-11.337l-78.984-78.984    l18.518-18.517c3.131-3.131,3.131-8.207,0-11.337c-3.131-3.131-8.207-3.131-11.337,0l-30.234,30.234    c-0.208,0.207-0.547,0.207-0.756,0l-24.186-24.186c-0.208-0.208-0.208-0.548,0-0.757l60.465-60.465    c0.209-0.209,0.548-0.208,0.757,0l24.186,24.186c0.208,0.208,0.208,0.547,0,0.756c0,0-5.627,5.627-6.018,6.017    c-0.045,0.045-0.09,0.091-0.135,0.137c-3.03,3.147-2.983,8.141,0.106,11.23l78.984,78.984l-18.518,18.518    c-1.565,1.565-2.348,3.617-2.348,5.668s0.782,4.104,2.348,5.668c3.131,3.131,8.207,3.131,11.337,0l30.234-30.234    c0.038-0.038,0.156-0.156,0.377-0.156s0.34,0.118,0.378,0.156l24.186,24.186c0.038,0.038,0.156,0.157,0.156,0.378    C379.925,191.83,379.808,191.947,379.769,191.987z"/>
	</g>
</g>
<g>
	<g>
		<path d="M511.761,472.106l-5.312-21.25c-2.8-11.203-12.821-19.027-24.369-19.027h-4.284v-17.637    c0-9.136-7.432-16.568-16.568-16.568H341.511c-9.136,0-16.568,7.432-16.568,16.568v17.637h-4.284    c-11.547,0-21.568,7.824-24.369,19.027l-5.312,21.25c-0.6,2.394-0.061,4.932,1.458,6.878c1.519,1.946,3.85,3.083,6.319,3.083    h205.228c2.469,0,4.799-1.137,6.319-3.083S512.359,474.5,511.761,472.106z M309.023,466.033l2.822-11.29    c1.013-4.052,4.638-6.882,8.814-6.882h29.402c4.427,0,8.017-3.589,8.017-8.017s-3.589-8.017-8.017-8.017h-9.085v-17.637    c0-0.295,0.239-0.534,0.534-0.534h119.716c0.295,0,0.534,0.239,0.534,0.534v17.637h-77.499c-4.427,0-8.017,3.589-8.017,8.017    s3.589,8.017,8.017,8.017h97.817c4.176,0,7.801,2.829,8.814,6.882l2.822,11.29H309.023z"/>
	</g>
</g>
<g>
	<g>
		<path d="M401.37,320.664c-4.427,0-8.017,3.588-8.017,8.017v42.756c0,4.427,3.589,8.017,8.017,8.017    c4.427,0,8.017-3.589,8.017-8.017V328.68C409.386,324.253,405.797,320.664,401.37,320.664z"/>
	</g>
</g>
<g>
	<g>
		<path d="M447.71,347.164c-3.959-1.981-8.775-0.375-10.755,3.585l-8.551,17.102c-1.981,3.959-0.375,8.775,3.585,10.755    c1.151,0.576,2.374,0.848,3.579,0.848c2.941,0,5.772-1.625,7.177-4.433l8.551-17.102    C453.276,353.959,451.671,349.143,447.71,347.164z"/>
	</g>
</g>
<g>
	<g>
		<path d="M374.335,367.851l-8.551-17.102c-1.98-3.961-6.795-5.567-10.755-3.585c-3.96,1.98-5.566,6.795-3.585,10.755l8.551,17.102    c1.404,2.809,4.235,4.433,7.177,4.433c1.205,0,2.427-0.273,3.579-0.848C374.71,376.627,376.316,371.811,374.335,367.851z"/>
	</g>
</g>
<g>
</g>
<g>
</g>
<g>
</g>
<g>
</g>
<g>
</g>
<g>
</g>
<g>
</g>
<g>
</g>
<g>
</g>
<g>
</g>
<g>
</g>
<g>
</g>
<g>
</g>
<g>
</g>
<g>
</g>
</svg>
