<?xml version="1.0" encoding="iso-8859-1"?>
<!-- Generator: Adobe Illustrator 19.0.0, SVG Export Plug-In . SVG Version: 6.00 Build 0)  -->
<svg xmlns="http://www.w3.org/2000/svg" xmlns:xlink="http://www.w3.org/1999/xlink" version="1.1" id="Layer_1" x="0px" y="0px" viewBox="0 0 512 512" style="enable-background:new 0 0 512 512;" xml:space="preserve">
<g>
	<g>
		<path d="M477.166,53.08H34.834C15.627,53.08,0,68.706,0,87.914v336.173c0,19.207,15.627,34.834,34.834,34.834h442.333    c19.207,0,34.834-15.626,34.834-34.834V87.914C512,68.706,496.373,53.08,477.166,53.08z M495.413,424.086    c0,10.061-8.185,18.246-18.246,18.246H34.834c-10.061,0-18.246-8.185-18.246-18.246V87.914c0-10.061,8.185-18.246,18.246-18.246    h442.333c10.061,0,18.246,8.185,18.246,18.246V424.086z"/>
	</g>
</g>
<g>
	<g>
		<path d="M43.68,230.013c-4.58,0-8.294,3.713-8.294,8.294v35.387c0,4.58,3.713,8.294,8.294,8.294c4.58,0,8.294-3.713,8.294-8.294    v-35.387C51.974,233.726,48.261,230.013,43.68,230.013z"/>
	</g>
</g>
<g>
	<g>
		<path d="M43.769,300.786H43.68c-4.58,0-8.25,3.713-8.25,8.294c0,4.58,3.758,8.294,8.338,8.294c4.58,0,8.294-3.713,8.294-8.294    C52.063,304.5,48.349,300.786,43.769,300.786z"/>
	</g>
</g>
<g>
	<g>
		<path d="M468.32,230.013c-4.58,0-8.294,3.713-8.294,8.294v35.387c0,4.58,3.713,8.294,8.294,8.294c4.58,0,8.294-3.713,8.294-8.294    v-35.387C476.613,233.726,472.9,230.013,468.32,230.013z"/>
	</g>
</g>
<g>
	<g>
		<path d="M371.011,88.467H79.067c-4.58,0-8.294,3.713-8.294,8.294V415.24c0,4.58,3.713,8.294,8.294,8.294h26.543    c4.58,0,8.294-3.713,8.294-8.294c0-4.58-3.713-8.294-8.294-8.294h-18.25V105.054h283.65c4.58,0,8.294-3.713,8.294-8.294    C379.305,92.18,375.591,88.467,371.011,88.467z"/>
	</g>
</g>
<g>
	<g>
		<path d="M432.933,88.467H406.39c-4.58,0-8.294,3.713-8.294,8.294c0,4.58,3.713,8.294,8.294,8.294h18.25v301.892h-283.65    c-4.58,0-8.294,3.713-8.294,8.294c0,4.58,3.713,8.294,8.294,8.294h291.944c4.58,0,8.294-3.713,8.294-8.294V96.76    C441.227,92.18,437.513,88.467,432.933,88.467z"/>
	</g>
</g>
<g>
	<g>
		<path d="M379.853,176.933H132.147c-14.329,0-25.987,11.658-25.987,25.987v106.16c0,14.329,11.658,25.987,25.987,25.987h247.706    c14.329,0,25.987-11.658,25.987-25.987V202.92C405.84,188.591,394.182,176.933,379.853,176.933z M389.253,309.08    c0,5.183-4.216,9.4-9.4,9.4H132.147c-5.183,0-9.4-4.217-9.4-9.4V202.92c0-5.183,4.216-9.4,9.4-9.4h247.706    c5.183,0,9.4,4.217,9.4,9.4V309.08z"/>
	</g>
</g>
<g>
	<g>
		<path d="M198.75,251.511c2.295-3.873,3.617-8.385,3.617-13.205c0-14.329-11.658-25.987-25.987-25.987h-26.54    c-4.58,0-8.294,3.713-8.294,8.294v70.773c0,4.58,3.713,8.294,8.294,8.294h35.387c14.329,0,25.987-11.658,25.987-25.987    C211.214,264.315,206.219,256.081,198.75,251.511z M158.134,228.907h18.246c5.183,0,9.4,4.217,9.4,9.4s-4.216,9.4-9.4,9.4h-18.246    V228.907z M185.227,283.093h-27.093v-18.799h18.246h8.847c5.183,0,9.4,4.217,9.4,9.4S190.41,283.093,185.227,283.093z"/>
	</g>
</g>
<g>
	<g>
		<path d="M282.54,212.32c-4.58,0-8.294,3.713-8.294,8.294v44.233c0,10.061-8.185,18.246-18.246,18.246s-18.246-8.185-18.246-18.246    v-44.233c0-4.58-3.713-8.294-8.294-8.294c-4.58,0-8.294,3.713-8.294,8.294v44.233c0,19.207,15.626,34.834,34.834,34.834    s34.834-15.627,34.834-34.834v-44.233C290.834,216.033,287.12,212.32,282.54,212.32z"/>
	</g>
</g>
<g>
	<g>
		<path d="M366.427,213.502c-3.93-2.358-9.022-1.083-11.379,2.844l-19.428,32.381l-19.428-32.381    c-2.357-3.927-7.451-5.201-11.379-2.844s-5.202,7.451-2.844,11.379l25.358,42.263v24.243c0,4.58,3.713,8.294,8.294,8.294    c4.58,0,8.294-3.713,8.294-8.294v-24.243l25.358-42.264C371.629,220.953,370.355,215.858,366.427,213.502z"/>
	</g>
</g>
<g>
	<g>
		<path d="M256,123.853c-4.58,0-8.294,3.713-8.294,8.294v17.693c0,4.58,3.713,8.294,8.294,8.294c4.58,0,8.294-3.713,8.294-8.294    v-17.693C264.294,127.567,260.58,123.853,256,123.853z"/>
	</g>
</g>
<g>
	<g>
		<path d="M219.185,146.131l-8.847-17.693c-2.049-4.097-7.029-5.759-11.127-3.709c-4.097,2.048-5.758,7.03-3.709,11.127    l8.847,17.693c1.453,2.906,4.381,4.586,7.425,4.586c1.246,0,2.511-0.282,3.702-0.877    C219.573,155.21,221.234,150.228,219.185,146.131z"/>
	</g>
</g>
<g>
	<g>
		<path d="M312.789,124.729c-4.095-2.049-9.078-0.388-11.127,3.709l-8.847,17.693c-2.049,4.097-0.388,9.079,3.709,11.127    c1.191,0.596,2.456,0.877,3.702,0.877c3.042,0,5.971-1.681,7.424-4.586l8.847-17.693    C318.547,131.759,316.886,126.777,312.789,124.729z"/>
	</g>
</g>
<g>
	<g>
		<path d="M256,353.866c-4.58,0-8.294,3.713-8.294,8.294v17.693c0,4.58,3.713,8.294,8.294,8.294c4.58,0,8.294-3.713,8.294-8.294    V362.16C264.294,357.579,260.58,353.866,256,353.866z"/>
	</g>
</g>
<g>
	<g>
		<path d="M316.498,376.144l-8.847-17.693c-2.048-4.097-7.03-5.759-11.127-3.709c-4.097,2.048-5.758,7.03-3.709,11.127l8.847,17.693    c1.453,2.906,4.381,4.586,7.425,4.586c1.246,0,2.511-0.282,3.702-0.877C316.886,385.223,318.547,380.241,316.498,376.144z"/>
	</g>
</g>
<g>
	<g>
		<path d="M215.476,354.742c-4.095-2.048-9.078-0.388-11.127,3.709l-8.847,17.693c-2.049,4.097-0.388,9.079,3.709,11.127    c1.191,0.596,2.456,0.877,3.702,0.877c3.042,0,5.971-1.681,7.425-4.586l8.847-17.693    C221.234,361.772,219.573,356.79,215.476,354.742z"/>
	</g>
</g>
<g>
</g>
<g>
</g>
<g>
</g>
<g>
</g>
<g>
</g>
<g>
</g>
<g>
</g>
<g>
</g>
<g>
</g>
<g>
</g>
<g>
</g>
<g>
</g>
<g>
</g>
<g>
</g>
<g>
</g>
</svg>
