<?xml version="1.0" encoding="iso-8859-1"?>
<!-- Generator: Adobe Illustrator 19.0.0, SVG Export Plug-In . SVG Version: 6.00 Build 0)  -->
<svg xmlns="http://www.w3.org/2000/svg" xmlns:xlink="http://www.w3.org/1999/xlink" version="1.1" id="Layer_1" x="0px" y="0px" viewBox="0 0 511.999 511.999" style="enable-background:new 0 0 511.999 511.999;" xml:space="preserve">
<g>
	<g>
		<path d="M429.934,130.433H298.336l91.143-36.457c4.181-1.672,6.214-6.417,4.542-10.598c-1.672-4.181-6.415-6.215-10.598-4.542    l-77.303,30.921c22.058-13.849,45.31-29.928,53.596-40.794c6.955-9.12,9.943-20.402,8.413-31.77    c-1.53-11.368-7.397-21.458-16.516-28.413c-18.827-14.358-45.825-10.723-60.183,8.104c-7.086,9.29-16.542,30.847-28.106,64.074    c-2.676,7.689-5.166,15.151-7.323,21.77c-2.157-6.619-4.646-14.081-7.323-21.77c-11.564-33.226-21.02-54.784-28.106-64.074    C206.215-1.943,179.217-5.578,160.389,8.78c-9.12,6.955-14.986,17.046-16.516,28.413c-1.531,11.368,1.457,22.649,8.412,31.77    c8.287,10.865,31.538,26.945,53.597,40.793l-77.303-30.921c-4.182-1.673-8.926,0.361-10.598,4.542    c-1.673,4.181,0.361,8.926,4.542,10.598l91.143,36.457H82.068c-0.002,0-0.005,0-0.009,0    c-14.084,0.003-25.541,11.461-25.541,25.547v330.475c0,14.087,11.46,25.547,25.547,25.547h347.868    c14.087,0,25.547-11.46,25.547-25.547V155.979h0.001C455.481,141.893,444.021,130.433,429.934,130.433z M304.394,26.773    c5.235-6.864,13.178-10.472,21.209-10.472c5.631,0,11.307,1.775,16.12,5.446c5.657,4.315,9.295,10.573,10.245,17.623    c0.949,7.051-0.904,14.048-5.218,19.706c-9.617,12.612-49.589,37.538-76.798,53.455C279.455,83.018,294.727,39.449,304.394,26.773    z M165.25,59.075c-4.314-5.657-6.167-12.655-5.218-19.706c0.95-7.051,4.588-13.309,10.245-17.623    c4.814-3.671,10.487-5.446,16.12-5.446c8.03,0,15.974,3.609,21.209,10.472c9.667,12.677,24.939,56.247,34.444,85.759    C214.842,96.617,174.873,71.693,165.25,59.075z M221.757,146.739v41.738l-41.738-41.738H221.757z M156.959,146.739l64.797,64.797    v55.21L101.749,146.739H156.959z M72.825,155.978c0.001-4.08,2.662-7.544,6.338-8.765l142.593,142.593v55.21L72.825,196.085    V155.978z M82.066,495.695c-5.095-0.001-9.24-4.146-9.24-9.241v-32.496l41.738,41.738H82.066z M137.623,495.694l-64.797-64.798    v-55.21l120.008,120.008H137.623z M221.758,495.696h-5.865v-0.002L72.826,352.627v-55.21l29.55,29.55    c1.591,1.593,3.679,2.388,5.765,2.388s4.173-0.796,5.765-2.388c3.184-3.184,3.184-8.346,0-11.53l-41.08-41.08v-55.21    l148.931,148.931v55.21l-81.728-81.728c-3.184-3.184-8.347-3.184-11.53,0c-3.184,3.184-3.184,8.346,0,11.53l93.259,93.259V495.696    z M273.937,495.694h-35.874V146.739h35.874V495.694z M290.242,146.738H313.5l23.716,23.716c1.591,1.593,3.679,2.388,5.765,2.388    c2.086,0,4.173-0.796,5.765-2.388c3.184-3.184,3.184-8.346,0-11.53l-12.186-12.186h55.21l47.404,47.404v55.21l-64.352-64.352    c-3.184-3.184-8.347-3.184-11.53,0c-3.183,3.186-3.183,8.348,0.001,11.532l75.882,75.882v55.21L290.242,178.692V146.738z     M290.244,495.694v-59.131l59.131,59.131H290.244z M372.434,495.694l-82.19-82.191v-55.21l137.401,137.401H372.434z     M439.175,484.165L290.244,335.234v-55.21l148.931,148.931V484.165z M439.175,405.894L290.244,256.963v-55.21l148.931,148.931    V405.894z M439.175,171.083l-24.344-24.344h15.104c5.095,0,9.24,4.145,9.24,9.24V171.083z"/>
	</g>
</g>
<g>
</g>
<g>
</g>
<g>
</g>
<g>
</g>
<g>
</g>
<g>
</g>
<g>
</g>
<g>
</g>
<g>
</g>
<g>
</g>
<g>
</g>
<g>
</g>
<g>
</g>
<g>
</g>
<g>
</g>
</svg>
