<?xml version="1.0" encoding="iso-8859-1"?>
<!-- Generator: Adobe Illustrator 19.0.0, SVG Export Plug-In . SVG Version: 6.00 Build 0)  -->
<svg xmlns="http://www.w3.org/2000/svg" xmlns:xlink="http://www.w3.org/1999/xlink" version="1.1" id="Layer_1" x="0px" y="0px" viewBox="0 0 512 512" style="enable-background:new 0 0 512 512;" xml:space="preserve">
<g>
	<g>
		<path d="M485.083,36.653H26.917C12.075,36.653,0,48.728,0,63.571V448.43c0,14.842,12.075,26.917,26.917,26.917h458.166    c14.842,0,26.917-12.075,26.917-26.917V63.571C512,48.728,499.925,36.653,485.083,36.653z M127.141,53.834h331.025v19.472H127.141    V53.834z M90.488,53.834h19.472v19.472H90.488V53.834z M53.834,53.834h19.472v19.472H53.834V53.834z M17.181,63.571    c0-5.369,4.367-9.736,9.736-9.736h9.736v19.472H17.181V63.571z M494.819,448.43c0,5.369-4.367,9.736-9.736,9.736H26.917    c-5.369,0-9.736-4.367-9.736-9.736V90.488h477.638V448.43z M494.819,73.306h-19.472V53.834h9.736c5.369,0,9.736,4.367,9.736,9.736    V73.306z"/>
	</g>
</g>
<g>
	<g>
		<path d="M466.756,109.96H45.244c-4.744,0-8.591,3.846-8.591,8.591c0,4.744,3.846,8.591,8.591,8.591h421.512    c4.744,0,8.591-3.846,8.591-8.591C475.347,113.806,471.5,109.96,466.756,109.96z"/>
	</g>
</g>
<g>
	<g>
		<path d="M222.21,345.412c1.12,0,2.254-0.07,3.39-0.212l116.206-14.526c13.444-1.68,23.581-13.163,23.581-26.71V228.51    c0-4.744-3.846-8.591-8.591-8.591h-54.98c-4.744,0-8.591,3.846-8.591,8.591s3.846,8.591,8.591,8.591h46.389v66.864    c0,4.9-3.666,9.053-8.529,9.66l-116.206,14.526c-4.492,0.561-8.735-2.006-10.324-6.242l-31.804-84.808h47.166    c4.744,0,8.591-3.846,8.591-8.591s-3.846-8.591-8.591-8.591h-53.609l-7.195-19.187c-3.917-10.447-14.046-17.466-25.203-17.466    h-14.79c-4.744,0-8.591,3.846-8.591,8.591c0,4.744,3.846,8.591,8.591,8.591h14.79c4.035,0,7.698,2.539,9.115,6.318l45.441,121.177    c1.113,2.969,2.711,5.627,4.66,7.937l-13.27,22.117c-1.856-0.405-3.781-0.627-5.757-0.627c-14.842,0-26.917,12.075-26.917,26.917    s12.075,26.917,26.917,26.917c11.839,0,21.909-7.686,25.504-18.327h104.77c3.594,10.641,13.665,18.327,25.504,18.327    c14.842,0,26.917-12.075,26.917-26.917s-12.075-26.917-26.917-26.917c-11.839,0-21.909,7.686-25.504,18.327h-104.77    c-1.106-3.276-2.826-6.27-5.023-8.847l13.246-22.077C218.299,345.187,220.236,345.412,222.21,345.412z M182.694,394.022    c-5.369,0-9.736-4.367-9.736-9.736c0-5.369,4.367-9.736,9.736-9.736c5.369,0,9.736,4.367,9.736,9.736    C192.43,389.655,188.062,394.022,182.694,394.022z M338.47,374.55c5.369,0,9.736,4.367,9.736,9.736    c0,5.369-4.367,9.736-9.736,9.736c-5.369,0-9.736-4.367-9.736-9.736C328.734,378.918,333.101,374.55,338.47,374.55z"/>
	</g>
</g>
<g>
	<g>
		<path d="M298.727,259.089c-3.355-3.355-8.794-3.355-12.148,0l-12.825,12.825V173.53c0-4.744-3.846-8.591-8.591-8.591    c-4.744,0-8.591,3.846-8.591,8.591v98.384l-12.825-12.825c-3.355-3.355-8.794-3.355-12.148,0c-3.355,3.355-3.355,8.793,0,12.148    l27.49,27.49c1.677,1.677,3.876,2.516,6.074,2.516c2.198,0,4.397-0.838,6.074-2.516l27.49-27.49    C302.082,267.883,302.082,262.444,298.727,259.089z"/>
	</g>
</g>
<g>
</g>
<g>
</g>
<g>
</g>
<g>
</g>
<g>
</g>
<g>
</g>
<g>
</g>
<g>
</g>
<g>
</g>
<g>
</g>
<g>
</g>
<g>
</g>
<g>
</g>
<g>
</g>
<g>
</g>
</svg>
