<?xml version="1.0" encoding="iso-8859-1"?>
<!-- Generator: Adobe Illustrator 19.0.0, SVG Export Plug-In . SVG Version: 6.00 Build 0)  -->
<svg xmlns="http://www.w3.org/2000/svg" xmlns:xlink="http://www.w3.org/1999/xlink" version="1.1" id="Layer_1" x="0px" y="0px" viewBox="0 0 512 512" style="enable-background:new 0 0 512 512;" xml:space="preserve">
<g>
	<g>
		<path d="M495.432,171.027h-118.96L294.859,29.669c-3.354-5.812-8.771-9.967-15.252-11.703c-6.481-1.737-13.25-0.845-19.062,2.51    c-1.663,0.96-3.171,2.106-4.546,3.38c-1.374-1.274-2.883-2.42-4.546-3.38c-5.81-3.355-12.58-4.247-19.06-2.51    c-6.481,1.737-11.898,5.893-15.252,11.703l-81.613,141.358H16.568C7.432,171.027,0,178.459,0,187.595v42.756    c0,9.136,7.432,16.568,16.568,16.568h1.068l14.94,216.629c1.213,17.581,15.967,31.354,33.591,31.354h379.667    c17.623,0,32.378-13.772,33.591-31.354l14.94-216.629h1.068c9.136,0,16.568-7.432,16.568-16.568v-42.756    C512,178.459,504.568,171.027,495.432,171.027z M264.33,39.875c0.627-2.343,2.131-4.302,4.233-5.516    c1.4-0.808,2.953-1.222,4.528-1.222c0.789,0,1.584,0.104,2.367,0.313c2.344,0.628,4.303,2.131,5.517,4.234l85.511,148.109    c2.504,4.34,1.013,9.906-3.325,12.411c-2.101,1.214-4.551,1.536-6.894,0.909c-2.344-0.628-4.303-2.131-5.517-4.234l-85.511-148.11    C264.024,44.667,263.701,42.22,264.33,39.875z M256,62.838l62.463,108.188H193.537L256,62.838z M145.515,185.795l85.511-148.11    c1.213-2.101,3.172-3.605,5.517-4.233c2.345-0.627,4.793-0.306,6.894,0.909c2.101,1.213,3.605,3.172,4.233,5.517    c0.629,2.344,0.306,4.792-0.907,6.894l-85.511,148.11c-1.213,2.102-3.172,3.605-5.517,4.233c-2.344,0.627-4.793,0.306-6.894-0.909    C144.502,195.701,143.01,190.133,145.515,185.795z M495.967,230.35c0,0.294-0.239,0.534-0.534,0.534h-34.205    c-4.427,0-8.017,3.589-8.017,8.017s3.589,8.017,8.017,8.017h17.065l-14.864,215.526c-0.635,9.21-8.364,16.424-17.595,16.424    H66.167c-9.231,0-16.96-7.214-17.595-16.424L33.708,246.918h393.315c4.427,0,8.017-3.589,8.017-8.017s-3.589-8.017-8.017-8.017    H16.568c-0.295,0-0.534-0.24-0.534-0.534v-42.756c0-0.294,0.239-0.534,0.534-0.534h111.915    c-1.273,9.766,3.293,19.808,12.34,25.031c3.87,2.235,8.165,3.377,12.518,3.377c2.182,0,4.378-0.288,6.543-0.868    c6.481-1.736,11.898-5.893,15.252-11.703l9.143-15.837h143.439l9.143,15.837c3.354,5.812,8.771,9.967,15.252,11.703    c2.165,0.58,4.36,0.868,6.543,0.868c4.353,0,8.648-1.142,12.519-3.377c9.047-5.224,13.613-15.265,12.34-25.031h111.916    c0.295,0,0.534,0.24,0.534,0.534V230.35z"/>
	</g>
</g>
<g>
	<g>
		<path d="M273.102,324.947c-4.427,0-8.017,3.589-8.017,8.017v94.063c0,5.01-4.076,9.086-9.086,9.086s-9.086-4.076-9.086-9.086    V298.759c0-5.01,4.076-9.086,9.086-9.086s9.086,4.076,9.086,9.086c0,4.427,3.589,8.017,8.017,8.017s8.017-3.589,8.017-8.017    c0-13.851-11.268-25.119-25.119-25.119s-25.119,11.268-25.119,25.119v128.267c0,13.851,11.268,25.119,25.119,25.119    s25.119-11.268,25.119-25.119v-94.063C281.119,328.537,277.53,324.947,273.102,324.947z"/>
	</g>
</g>
<g>
	<g>
		<path d="M341.511,324.947c-4.427,0-8.017,3.589-8.017,8.017v94.063c0,5.01-4.076,9.086-9.086,9.086    c-5.01,0-9.086-4.076-9.086-9.086V298.759c0-5.01,4.076-9.086,9.086-9.086c5.01,0,9.086,4.076,9.086,9.086    c0,4.427,3.589,8.017,8.017,8.017s8.017-3.589,8.017-8.017c0-13.851-11.268-25.119-25.119-25.119    c-13.851,0-25.119,11.268-25.119,25.119v128.267c0,13.851,11.268,25.119,25.119,25.119c13.851,0,25.119-11.268,25.119-25.119    v-94.063C349.528,328.537,345.939,324.947,341.511,324.947z"/>
	</g>
</g>
<g>
	<g>
		<path d="M409.921,324.947c-4.427,0-8.017,3.589-8.017,8.017v94.063c0,5.01-4.076,9.086-9.086,9.086    c-5.01,0-9.086-4.076-9.086-9.086V298.759c0-5.01,4.076-9.086,9.086-9.086c5.01,0,9.086,4.076,9.086,9.086    c0,4.427,3.589,8.017,8.017,8.017c4.427,0,8.017-3.589,8.017-8.017c0-13.851-11.268-25.119-25.119-25.119    c-13.851,0-25.119,11.268-25.119,25.119v128.267c0,13.851,11.268,25.119,25.119,25.119c13.851,0,25.119-11.268,25.119-25.119    v-94.063C417.937,328.537,414.348,324.947,409.921,324.947z"/>
	</g>
</g>
<g>
	<g>
		<path d="M136.284,324.947c-4.427,0-8.017,3.589-8.017,8.017v94.063c0,5.01-4.076,9.086-9.086,9.086s-9.086-4.076-9.086-9.086    V298.759c0-5.01,4.076-9.086,9.086-9.086s9.086,4.076,9.086,9.086c0,4.427,3.589,8.017,8.017,8.017s8.017-3.589,8.017-8.017    c0-13.851-11.268-25.119-25.119-25.119s-25.119,11.268-25.119,25.119v128.267c0,13.851,11.268,25.119,25.119,25.119    s25.119-11.268,25.119-25.119v-94.063C144.301,328.537,140.711,324.947,136.284,324.947z"/>
	</g>
</g>
<g>
	<g>
		<path d="M204.693,324.947c-4.427,0-8.017,3.589-8.017,8.017v94.063c0,5.01-4.076,9.086-9.086,9.086s-9.086-4.076-9.086-9.086    V298.759c0-5.01,4.076-9.086,9.086-9.086s9.086,4.076,9.086,9.086c0,4.427,3.589,8.017,8.017,8.017s8.017-3.589,8.017-8.017    c0-13.851-11.268-25.119-25.119-25.119s-25.119,11.268-25.119,25.119v128.267c0,13.851,11.268,25.119,25.119,25.119    s25.119-11.268,25.119-25.119v-94.063C212.71,328.537,209.12,324.947,204.693,324.947z"/>
	</g>
</g>
<g>
</g>
<g>
</g>
<g>
</g>
<g>
</g>
<g>
</g>
<g>
</g>
<g>
</g>
<g>
</g>
<g>
</g>
<g>
</g>
<g>
</g>
<g>
</g>
<g>
</g>
<g>
</g>
<g>
</g>
</svg>
