<?xml version="1.0" encoding="iso-8859-1"?>
<!-- Generator: Adobe Illustrator 19.0.0, SVG Export Plug-In . SVG Version: 6.00 Build 0)  -->
<svg xmlns="http://www.w3.org/2000/svg" xmlns:xlink="http://www.w3.org/1999/xlink" version="1.1" id="Layer_1" x="0px" y="0px" viewBox="0 0 512 512" style="enable-background:new 0 0 512 512;" xml:space="preserve">
<g>
	<g>
		<path d="M273.692,35.387h-35.387c-4.58,0-8.294,3.713-8.294,8.294c0,4.58,3.713,8.294,8.294,8.294h35.387    c4.58,0,8.294-3.713,8.294-8.294C281.986,39.1,278.273,35.387,273.692,35.387z"/>
	</g>
</g>
<g>
	<g>
		<path d="M203.007,35.387h-0.088c-4.58,0-8.25,3.713-8.25,8.294c0,4.58,3.758,8.294,8.338,8.294c4.58,0,8.294-3.713,8.294-8.294    C211.301,39.1,207.588,35.387,203.007,35.387z"/>
	</g>
</g>
<g>
	<g>
		<path d="M371.005,238.86c-4.58,0-8.294,3.713-8.294,8.294v177.486H149.286V247.153c0-4.58-3.713-8.294-8.294-8.294    c-4.58,0-8.294,3.713-8.294,8.294v185.78c0,4.58,3.713,8.294,8.294,8.294h230.013c4.58,0,8.294-3.713,8.294-8.294v-185.78    C379.299,242.573,375.586,238.86,371.005,238.86z"/>
	</g>
</g>
<g>
	<g>
		<path d="M273.692,460.026h-35.387c-4.58,0-8.294,3.713-8.294,8.294c0,4.58,3.713,8.294,8.294,8.294h35.387    c4.58,0,8.294-3.713,8.294-8.294C281.986,463.739,278.273,460.026,273.692,460.026z"/>
	</g>
</g>
<g>
	<g>
		<path d="M317.925,265.4H214.398l-1.643-5.478c-2.192-7.306-8.789-12.215-16.417-12.215h-19.958c-4.58,0-8.294,3.713-8.294,8.294    c0,4.58,3.713,8.294,8.294,8.294h19.958c0.242,0,0.46,0.161,0.53,0.394l20.866,69.552c3.322,11.078,13.325,18.52,24.89,18.52    h57.609c14.329,0,25.987-11.658,25.987-25.987v-53.08C326.219,269.113,322.506,265.4,317.925,265.4z M309.632,326.773    c0,5.183-4.216,9.4-9.4,9.4h-57.609c-4.183,0-7.802-2.693-9.004-6.699l-14.245-47.487h90.258V326.773z"/>
	</g>
</g>
<g>
	<g>
		<path d="M220.612,362.713c-9.452,0-17.14,7.689-17.14,17.14s7.689,17.14,17.14,17.14s17.14-7.689,17.14-17.14    S230.064,362.713,220.612,362.713z"/>
	</g>
</g>
<g>
	<g>
		<path d="M309.079,362.713c-9.452,0-17.14,7.689-17.14,17.14s7.689,17.14,17.14,17.14s17.14-7.689,17.14-17.14    S318.53,362.713,309.079,362.713z"/>
	</g>
</g>
<g>
	<g>
		<path d="M447.971,153.183l0.007-0.006l-33.292-37.453V34.834C414.686,15.627,399.059,0,379.852,0H132.146    c-19.207,0-34.834,15.627-34.834,34.834v80.891l-33.291,37.453l0.007,0.006c-1.303,1.465-2.101,3.388-2.101,5.504v26.54    c0,19.207,15.627,34.834,34.834,34.834c0.186,0,0.368-0.012,0.553-0.016v257.121c0,19.207,15.627,34.834,34.834,34.834h247.706    c19.207,0,34.834-15.627,34.834-34.834V220.045c0.185,0.003,0.367,0.016,0.553,0.016c19.207,0,34.834-15.627,34.834-34.834v-26.54    C450.072,156.571,449.274,154.648,447.971,153.183z M423.31,150.393h-30.053l-40.02-63.032h14.044L423.31,150.393z     M290.833,166.981h36.492v18.246c0,10.061-8.185,18.246-18.246,18.246s-18.246-8.185-18.246-18.246V166.981z M289.846,150.393    l-8.004-63.032h17.73l24.012,63.032H289.846z M317.323,87.361h16.266l40.02,63.032h-32.274L317.323,87.361z M343.912,166.981    h36.492v18.246c0,10.061-8.185,18.246-18.246,18.246c-10.061,0-18.246-8.185-18.246-18.246V166.981z M113.9,34.834    c0-10.061,8.185-18.246,18.246-18.246h247.706c10.061,0,18.246,8.185,18.246,18.246v62.23l-20.895-23.506    c-1.574-1.772-3.829-2.784-6.198-2.784H140.992c-2.369,0-4.625,1.013-6.198,2.784L113.9,97.063V34.834z M274.245,166.981v18.246    c0,10.061-8.185,18.246-18.246,18.246s-18.246-8.185-18.246-18.246v-18.246H274.245z M238.873,150.393l8.004-63.032h18.244    l8.004,63.032H238.873z M138.389,150.393l40.02-63.032h16.266l-24.012,63.032H138.389z M168.085,166.981v18.246    c0,10.061-8.185,18.246-18.246,18.246c-10.061,0-18.246-8.185-18.246-18.246v-18.246H168.085z M184.673,166.981h36.492v18.246    c0,10.061-8.185,18.246-18.246,18.246c-10.061,0-18.246-8.185-18.246-18.246V166.981z M188.414,150.393l24.012-63.032h17.73    l-8.004,63.032H188.414z M144.717,87.361h14.044l-40.02,63.032H88.688L144.717,87.361z M96.759,203.473    c-10.061,0-18.246-8.185-18.246-18.246v-18.246h36.492v18.246C115.005,195.288,106.82,203.473,96.759,203.473z M398.098,477.166    c0,10.061-8.185,18.246-18.246,18.246H132.146c-10.061,0-18.246-8.185-18.246-18.246V215.531c3.571-2.027,6.756-4.658,9.4-7.766    c6.394,7.518,15.92,12.296,26.54,12.296c10.62,0,20.146-4.777,26.54-12.296c6.394,7.518,15.92,12.296,26.54,12.296    c10.62,0,20.146-4.777,26.54-12.296c6.394,7.518,15.92,12.296,26.54,12.296s20.146-4.777,26.54-12.296    c6.394,7.518,15.919,12.296,26.54,12.296s20.146-4.777,26.54-12.296c6.394,7.518,15.92,12.296,26.54,12.296    c10.62,0,20.146-4.777,26.54-12.296c2.644,3.108,5.829,5.738,9.4,7.766V477.166z M433.485,185.227    c0,10.061-8.185,18.246-18.246,18.246s-18.246-8.185-18.246-18.246v-18.246h36.492V185.227z"/>
	</g>
</g>
<g>
</g>
<g>
</g>
<g>
</g>
<g>
</g>
<g>
</g>
<g>
</g>
<g>
</g>
<g>
</g>
<g>
</g>
<g>
</g>
<g>
</g>
<g>
</g>
<g>
</g>
<g>
</g>
<g>
</g>
</svg>
