<?xml version="1.0" encoding="iso-8859-1"?>
<!-- Generator: Adobe Illustrator 19.0.0, SVG Export Plug-In . SVG Version: 6.00 Build 0)  -->
<svg xmlns="http://www.w3.org/2000/svg" xmlns:xlink="http://www.w3.org/1999/xlink" version="1.1" id="Layer_1" x="0px" y="0px" viewBox="0 0 512 512" style="enable-background:new 0 0 512 512;" xml:space="preserve">
<g>
	<g>
		<path d="M494.558,261.046h-0.563V143.455c0-14.581-11.863-26.444-26.444-26.444h-4.731l-10.772-56.656    c-0.87-4.577-3.47-8.541-7.322-11.162c-3.852-2.621-8.494-3.585-13.07-2.715l-40.132,7.63L376.58,11.675    c-1.547-4.394-4.714-7.923-8.916-9.936c-4.201-2.013-8.934-2.27-13.33-0.721L24.839,117.065C11.003,117.898,0,129.413,0,143.455    v342.084c0,14.581,11.863,26.444,26.444,26.444h441.108c14.581,0,26.444-11.863,26.444-26.444V367.947h0.563    c9.618,0,17.442-7.824,17.442-17.442v-72.018C512,268.871,504.176,261.046,494.558,261.046z M359.94,16.938    c0.055-0.019,0.218-0.078,0.43,0.024c0.21,0.1,0.268,0.267,0.287,0.321l14.094,40.016l-16.807,3.195    c-4.579,0.871-7.586,5.289-6.715,9.868c0.871,4.579,5.286,7.587,9.868,6.715l73.711-14.015c0.056-0.01,0.228-0.044,0.422,0.088    c0.194,0.132,0.226,0.304,0.236,0.36l10.172,53.503H151.043l174.055-33.092c4.579-0.87,7.586-5.288,6.715-9.868    c-0.871-4.579-5.287-7.588-9.868-6.715l-228.4,43.425L359.94,16.938z M477.117,485.538c0,5.274-4.291,9.565-9.565,9.565H26.444    c-5.274,0-9.565-4.291-9.565-9.565v-9.565h18.567c4.661,0,8.44-3.779,8.44-8.44s-3.779-8.44-8.44-8.44H16.879V169.899h18.567    c4.661,0,8.44-3.779,8.44-8.44s-3.779-8.44-8.44-8.44H16.879v-9.565c0-5.274,4.291-9.565,9.565-9.565h441.108    c5.274,0,9.565,4.291,9.565,9.565v117.591h-54.576c-29.472,0-53.451,23.978-53.451,53.451c0,29.472,23.978,53.451,53.451,53.451    h54.576V485.538z M495.121,350.505c0,0.309-0.252,0.563-0.563,0.563h-72.018c-20.165,0-36.571-16.406-36.571-36.571    c0-20.166,16.406-36.571,36.571-36.571h72.018c0.311,0,0.563,0.253,0.563,0.563V350.505z"/>
	</g>
</g>
<g>
	<g>
		<path d="M89.459,459.094H71.455c-4.661,0-8.44,3.779-8.44,8.44s3.779,8.44,8.44,8.44h18.004c4.661,0,8.44-3.779,8.44-8.44    S94.12,459.094,89.459,459.094z"/>
	</g>
</g>
<g>
	<g>
		<path d="M89.459,153.02H71.455c-4.661,0-8.44,3.779-8.44,8.44s3.779,8.44,8.44,8.44h18.004c4.661,0,8.44-3.779,8.44-8.44    S94.12,153.02,89.459,153.02z"/>
	</g>
</g>
<g>
	<g>
		<path d="M143.473,459.094h-18.004c-4.661,0-8.44,3.779-8.44,8.44s3.779,8.44,8.44,8.44h18.004c4.661,0,8.44-3.779,8.44-8.44    S148.133,459.094,143.473,459.094z"/>
	</g>
</g>
<g>
	<g>
		<path d="M143.473,153.02h-18.004c-4.661,0-8.44,3.779-8.44,8.44s3.779,8.44,8.44,8.44h18.004c4.661,0,8.44-3.779,8.44-8.44    S148.133,153.02,143.473,153.02z"/>
	</g>
</g>
<g>
	<g>
		<path d="M197.486,459.094h-18.004c-4.661,0-8.44,3.779-8.44,8.44s3.779,8.44,8.44,8.44h18.004c4.661,0,8.44-3.779,8.44-8.44    S202.147,459.094,197.486,459.094z"/>
	</g>
</g>
<g>
	<g>
		<path d="M197.486,153.02h-18.004c-4.661,0-8.44,3.779-8.44,8.44s3.779,8.44,8.44,8.44h18.004c4.661,0,8.44-3.779,8.44-8.44    S202.147,153.02,197.486,153.02z"/>
	</g>
</g>
<g>
	<g>
		<path d="M251.499,459.094h-18.004c-4.661,0-8.44,3.779-8.44,8.44s3.779,8.44,8.44,8.44h18.004c4.661,0,8.44-3.779,8.44-8.44    S256.16,459.094,251.499,459.094z"/>
	</g>
</g>
<g>
	<g>
		<path d="M251.499,153.02h-18.004c-4.661,0-8.44,3.779-8.44,8.44s3.779,8.44,8.44,8.44h18.004c4.661,0,8.44-3.779,8.44-8.44    S256.16,153.02,251.499,153.02z"/>
	</g>
</g>
<g>
	<g>
		<path d="M305.512,459.094h-18.004c-4.661,0-8.44,3.779-8.44,8.44s3.779,8.44,8.44,8.44h18.004c4.661,0,8.44-3.779,8.44-8.44    S310.173,459.094,305.512,459.094z"/>
	</g>
</g>
<g>
	<g>
		<path d="M305.512,153.02h-18.004c-4.661,0-8.44,3.779-8.44,8.44s3.779,8.44,8.44,8.44h18.004c4.661,0,8.44-3.779,8.44-8.44    S310.173,153.02,305.512,153.02z"/>
	</g>
</g>
<g>
	<g>
		<path d="M359.525,459.094h-18.004c-4.661,0-8.44,3.779-8.44,8.44s3.779,8.44,8.44,8.44h18.004c4.661,0,8.44-3.779,8.44-8.44    S364.186,459.094,359.525,459.094z"/>
	</g>
</g>
<g>
	<g>
		<path d="M359.525,153.02h-18.004c-4.661,0-8.44,3.779-8.44,8.44s3.779,8.44,8.44,8.44h18.004c4.661,0,8.44-3.779,8.44-8.44    S364.186,153.02,359.525,153.02z"/>
	</g>
</g>
<g>
	<g>
		<path d="M413.538,459.094h-18.004c-4.661,0-8.44,3.779-8.44,8.44s3.779,8.44,8.44,8.44h18.004c4.661,0,8.44-3.779,8.44-8.44    S418.199,459.094,413.538,459.094z"/>
	</g>
</g>
<g>
	<g>
		<path d="M413.538,153.02h-18.004c-4.661,0-8.44,3.779-8.44,8.44s3.779,8.44,8.44,8.44h18.004c4.661,0,8.44-3.779,8.44-8.44    S418.199,153.02,413.538,153.02z"/>
	</g>
</g>
<g>
	<g>
		<path d="M449.547,441.09c-4.661,0-8.44,3.779-8.44,8.44v18.004c0,4.662,3.779,8.44,8.44,8.44c4.661,0,8.44-3.779,8.44-8.44V449.53    C457.987,444.869,454.208,441.09,449.547,441.09z"/>
	</g>
</g>
<g>
	<g>
		<path d="M449.547,153.02c-4.661,0-8.44,3.779-8.44,8.44v18.004c0,4.662,3.779,8.44,8.44,8.44c4.661,0,8.44-3.779,8.44-8.44    v-18.004C457.987,156.798,454.208,153.02,449.547,153.02z"/>
	</g>
</g>
<g>
	<g>
		<path d="M449.547,207.033c-4.661,0-8.44,3.779-8.44,8.44v18.004c0,4.662,3.779,8.44,8.44,8.44c4.661,0,8.44-3.779,8.44-8.44    v-18.004C457.987,210.812,454.208,207.033,449.547,207.033z"/>
	</g>
</g>
<g>
	<g>
		<path d="M449.547,387.077c-4.661,0-8.44,3.779-8.44,8.44v18.004c0,4.662,3.779,8.44,8.44,8.44c4.661,0,8.44-3.779,8.44-8.44    v-18.004C457.987,390.856,454.208,387.077,449.547,387.077z"/>
	</g>
</g>
<g>
	<g>
		<path d="M422.541,297.055c-9.618,0-17.442,7.824-17.442,17.442c0,9.618,7.824,17.442,17.442,17.442    c9.618,0,17.442-7.824,17.442-17.442C439.982,304.879,432.158,297.055,422.541,297.055z"/>
	</g>
</g>
<g>
	<g>
		<path d="M241.934,308.053v-65.798c27.575,2.217,46.136,15.045,46.136,26.668c0,4.661,3.779,8.44,8.44,8.44s8.44-3.779,8.44-8.44    c0-22.851-27.068-41.094-63.015-43.584v-9.866c0-4.661-3.779-8.44-8.44-8.44s-8.44,3.779-8.44,8.44v9.866    c-35.947,2.491-63.015,20.734-63.015,43.584c0,30.612,29.107,42.558,63.015,52.017v65.798    c-27.575-2.216-46.136-15.044-46.136-26.668c0-4.661-3.779-8.44-8.44-8.44s-8.44,3.779-8.44,8.44    c0,22.851,27.068,41.094,63.015,43.584v9.866c0,4.661,3.779,8.44,8.44,8.44s8.44-3.779,8.44-8.44v-9.866    c35.947-2.491,63.015-20.734,63.015-43.584C304.949,329.458,275.842,317.512,241.934,308.053z M225.055,303.36    c-34.23-10.112-46.136-19.297-46.136-34.437c0-11.623,18.561-24.451,46.136-26.668V303.36z M241.934,386.738v-61.105    c34.23,10.113,46.136,19.298,46.136,34.437C288.07,371.693,269.509,384.521,241.934,386.738z"/>
	</g>
</g>
<g>
</g>
<g>
</g>
<g>
</g>
<g>
</g>
<g>
</g>
<g>
</g>
<g>
</g>
<g>
</g>
<g>
</g>
<g>
</g>
<g>
</g>
<g>
</g>
<g>
</g>
<g>
</g>
<g>
</g>
</svg>
